<svg width="157" height="125" viewBox="0 0 157 125" fill="none" xmlns="http://www.w3.org/2000/svg">
<g clip-path="url(#clip0_8_284)">
<path fill-rule="evenodd" clip-rule="evenodd" d="M75.1137 53.7791L74.6904 51.9525C78.4653 51.0775 78.2113 49.9816 78.0419 49.2509L69.5483 51.2197L68.3929 50.5251L64.1591 32.2594L64.8912 31.1273L89.4282 25.44L90.5836 26.1345L94.4956 43.0121L92.1848 41.623L88.9078 27.4853L66.2583 32.7352L70.0687 49.1743L80.8838 46.6675L80.1518 47.7995L85.9289 51.2723L75.1137 53.7791ZM89.9492 50.3404L93.6094 44.6802L91.9729 43.7123L89.5572 47.448L86.8264 35.6666L84.9389 36.104L87.6655 47.8672L83.8715 45.5708L82.832 47.1783L88.6091 50.651L89.9492 50.3404Z" fill="white"/>
</g>
<path d="M36.5517 90.57C36.0062 90.6965 35.466 90.7396 34.9311 90.6994C34.4154 90.6711 33.9222 90.457 33.4517 90.0569C33.4118 89.672 33.3944 89.1012 33.3996 88.3444C33.4204 87.5841 33.4585 86.7212 33.5138 85.7557C33.5656 84.7747 33.6275 83.7666 33.6996 82.7316C33.7717 81.6966 33.8468 80.7101 33.925 79.7722C34.0152 78.8151 34.0935 77.984 34.1599 77.2787C34.2383 76.5543 34.2977 76.0314 34.3382 75.7099C34.356 75.5744 34.3906 75.3693 34.4419 75.0946C34.4931 74.8199 34.5738 74.5302 34.6838 74.2255C34.7938 73.9208 34.9381 73.6574 35.1165 73.4354C35.307 73.1941 35.5347 73.0428 35.7996 72.9813C36.0646 72.9199 36.386 72.9603 36.7639 73.1027C36.5337 74.3058 36.3246 75.6353 36.1367 77.0914C35.9607 78.5283 35.8111 80.0083 35.6879 81.5315C35.5768 83.0355 35.4895 84.5011 35.4262 85.9282C35.3749 87.3362 35.3607 88.6206 35.3834 89.7815C35.519 89.7993 35.6977 89.7907 35.9195 89.7557C36.1605 89.7327 36.3823 89.6977 36.585 89.6507C37.5981 89.4158 38.5066 88.9424 39.3106 88.2304C40.1182 87.534 40.8099 86.692 41.3857 85.7044C41.9735 84.6976 42.4383 83.6208 42.7801 82.474C43.1183 81.3116 43.3185 80.1565 43.3809 79.0087C43.4433 77.861 43.3606 76.7961 43.133 75.8142C42.8403 74.5517 42.3853 73.5814 41.7682 72.9032C41.1631 72.2059 40.4449 71.7647 39.6136 71.5797C38.7787 71.3791 37.8781 71.3908 36.9117 71.6148C35.8986 71.8497 35.0301 72.2482 34.3064 72.8102C33.579 73.3566 33.0556 74.0035 32.7362 74.751C32.4287 75.4793 32.3689 76.2486 32.5569 77.0591C32.5966 77.2306 32.6556 77.414 32.7337 77.6094C32.8083 77.7892 32.9062 77.9636 33.0275 78.1326C32.3573 78.288 31.8415 78.2597 31.4804 78.0478C31.1311 77.8167 30.9077 77.4908 30.8102 77.0699C30.6837 76.5244 30.7502 75.9259 31.0098 75.2745C31.2849 74.6194 31.719 73.9767 32.312 73.3465C32.9169 72.6971 33.6545 72.1237 34.5246 71.6263C35.3912 71.1133 36.3699 70.7304 37.461 70.4774C38.9885 70.1232 40.2807 70.1357 41.3376 70.5148C42.3909 70.8782 43.2359 71.5118 43.8724 72.4153C44.5209 73.2997 44.9861 74.3498 45.268 75.5655C45.5788 76.906 45.6587 78.2425 45.5078 79.575C45.3688 80.8883 45.0367 82.1479 44.5115 83.3537C44.0019 84.5558 43.3368 85.6544 42.5164 86.6495C41.7115 87.6409 40.7967 88.4771 39.7721 89.1581C38.763 89.8356 37.6895 90.3062 36.5517 90.57ZM49.0622 86.3143C48.3609 86.4769 47.8235 86.3552 47.4501 85.949C47.0959 85.5548 46.8556 85.085 46.7291 84.5394C46.6134 84.0407 46.5739 83.516 46.6105 82.9655C46.6435 82.3995 46.7401 81.8597 46.9003 81.3462C47.076 80.8292 47.2968 80.4002 47.5627 80.0594C47.8406 79.6993 48.151 79.4795 48.4939 79.4C48.603 79.3747 48.7331 79.3692 48.8842 79.3834C49.0473 79.3785 49.169 79.4077 49.2495 79.4712C49.1166 79.7484 48.9887 80.0819 48.8655 80.4718C48.758 80.858 48.6637 81.2659 48.5826 81.6953C48.5134 82.1055 48.4773 82.5163 48.4741 82.9276C48.4709 83.339 48.5073 83.7083 48.5832 84.0356C48.6555 84.3474 48.7696 84.5919 48.9257 84.7692C49.0974 84.9429 49.3313 84.9955 49.6275 84.9268C49.9236 84.8581 50.2364 84.6132 50.5657 84.1919C50.907 83.7514 51.2142 83.2696 51.487 82.7464C50.8835 82.4101 50.4111 82.0022 50.0701 81.5229C49.7254 81.0279 49.4645 80.3986 49.2874 79.6348C49.2115 79.3075 49.2027 78.9154 49.261 78.4584C49.3349 77.9978 49.5149 77.5701 49.8011 77.1753C50.1029 76.7768 50.5656 76.5053 51.189 76.3607C51.8593 76.2053 52.3702 76.284 52.7219 76.5966C53.0892 76.9056 53.3325 77.3173 53.4517 77.8317C53.5855 78.4084 53.5796 79.0914 53.4341 79.8806C53.3042 80.6663 53.1029 81.4274 52.8302 82.164C53.0389 82.2142 53.268 82.2103 53.5174 82.1525C53.7512 82.0983 54.0191 81.9787 54.3211 81.7937C54.6231 81.6087 54.9011 81.3554 55.155 81.0337C55.4053 80.6965 55.5734 80.2879 55.6592 79.8082L56.1505 80.0145C55.9919 80.8889 55.6676 81.58 55.1777 82.0878C54.6997 82.5764 54.1879 82.884 53.6424 83.0104C53.4397 83.0574 53.2335 83.0888 53.0237 83.1046C52.8102 83.1048 52.6105 83.0937 52.4246 83.0711C52.0392 83.8174 51.5578 84.5039 50.9804 85.1305C50.403 85.7571 49.7636 86.1517 49.0622 86.3143ZM51.9215 81.8573C52.169 81.2251 52.3531 80.5665 52.4735 79.8816C52.5939 79.1967 52.5927 78.5893 52.4698 78.0593C52.3867 77.7009 52.2725 77.4563 52.1272 77.3258C51.9784 77.1796 51.7949 77.1318 51.5766 77.1824C51.2805 77.2511 51.0253 77.532 50.8112 78.0251C50.597 78.5182 50.564 79.0843 50.7122 79.7233C50.7881 80.0506 50.9348 80.4354 51.1523 80.8777C51.3854 81.3164 51.6418 81.643 51.9215 81.8573ZM63.0542 83.218C62.5242 83.3409 62.1115 83.1902 61.8161 82.766C61.5398 82.3537 61.312 81.8317 61.1327 81.1999C61.1049 81.0092 61.0531 80.7502 60.9772 80.4229C60.9169 80.092 60.8692 79.8156 60.8342 79.5938C60.6442 80.2619 60.4212 80.9296 60.1653 81.5966C59.9093 82.2637 59.6065 82.8348 59.2568 83.3101C58.9071 83.7853 58.4907 84.079 58.0075 84.191C57.4776 84.3139 56.9869 84.1813 56.5356 83.7932C56.0807 83.3895 55.7755 82.8526 55.6201 82.1823C55.5153 81.7303 55.4644 81.1919 55.4674 80.5671C55.4859 79.9387 55.5392 79.3186 55.6273 78.7069C55.731 78.0916 55.8564 77.5698 56.0035 77.1415C56.1661 76.7096 56.341 76.472 56.528 76.4286C56.6371 76.4033 56.8386 76.4223 57.1325 76.4855C57.442 76.5452 57.6514 76.6691 57.7607 76.8573C57.6471 77.1464 57.5252 77.577 57.3951 78.1492C57.2805 78.7178 57.1984 79.3199 57.1487 79.9555C57.1109 80.572 57.1481 81.1218 57.2601 81.605C57.2818 81.6985 57.3275 81.8604 57.3973 82.0906C57.4791 82.3015 57.5962 82.4879 57.7487 82.6496C57.9012 82.8114 58.0865 82.867 58.3047 82.8164C58.6476 82.7369 58.9573 82.4433 59.2338 81.9358C59.5259 81.4246 59.7927 80.8043 60.0342 80.0749C60.2757 79.3455 60.4902 78.6059 60.6777 77.8562C60.6626 77.1535 60.6675 76.6432 60.6923 76.3254C60.7172 76.0075 60.7673 75.7988 60.8428 75.6992C60.9338 75.596 61.0495 75.5281 61.1897 75.4956C61.4859 75.4269 61.7263 75.4368 61.9111 75.5254C62.1079 75.5947 62.2315 75.7385 62.2821 75.9567C62.2858 75.9723 62.2864 76.0461 62.2842 76.178C62.2783 76.2943 62.2712 76.3699 62.2628 76.4047C62.2452 76.7537 62.2516 77.171 62.2821 77.6567C62.309 78.1268 62.3605 78.6322 62.4366 79.173C62.5091 79.6982 62.6067 80.2257 62.7296 80.7557C62.8163 81.1298 62.9084 81.4205 63.0057 81.6279C63.0995 81.8196 63.2399 81.8938 63.4269 81.8505C63.6451 81.7999 63.8638 81.6096 64.0829 81.2796C64.3176 80.9459 64.5402 80.5248 64.7508 80.0161C64.9769 79.5037 65.1784 78.9561 65.3553 78.3731C65.5442 77.7708 65.7019 77.1758 65.8284 76.5881C65.6405 75.7776 65.5523 75.1493 65.5638 74.7031C65.5909 74.2534 65.6799 73.9289 65.8308 73.7297C65.9937 73.5112 66.192 73.3749 66.4258 73.3207C66.8155 73.2304 67.1094 73.2936 67.3075 73.5105C67.5212 73.7237 67.6479 73.9161 67.6876 74.0875C67.7238 74.2434 67.7191 74.4005 67.6737 74.5588C67.6247 74.7016 67.5895 74.833 67.568 74.9529C67.5131 75.212 67.469 75.5179 67.4358 75.8705C67.4182 76.2195 67.4672 76.6434 67.5829 77.1421C67.6443 77.4071 67.7309 77.6744 67.8427 77.9442C67.9665 78.1947 68.1184 78.3894 68.2984 78.5283C68.4941 78.6636 68.7321 78.6988 69.0127 78.6337C69.2933 78.5687 69.5449 78.3789 69.7676 78.0645C70.006 77.7464 70.2171 77.2048 70.401 76.4395L70.9265 76.6872C70.7715 77.5772 70.5119 78.2286 70.1478 78.6415C69.78 79.0389 69.3935 79.2845 68.9883 79.3785C68.4739 79.4977 67.9941 79.4119 67.5489 79.1209C67.1037 78.83 66.7165 78.4352 66.3874 77.9367C66.1532 78.6972 65.8721 79.4686 65.5443 80.2509C65.2285 81.0139 64.8622 81.6655 64.4454 82.2056C64.0323 82.7613 63.5685 83.0988 63.0542 83.218ZM78.7814 79.1281C78.1735 79.269 77.6698 79.2216 77.2702 78.9857C76.8898 78.7619 76.6454 78.4161 76.537 77.9485C76.4647 77.6368 76.4434 77.2968 76.473 76.9286C76.499 76.5448 76.525 76.1611 76.551 75.7773C76.5769 75.3935 76.552 75.0379 76.4761 74.7106C76.3966 74.3677 76.2567 74.1538 76.0563 74.0689C75.8679 73.9647 75.6646 73.9379 75.4464 73.9885C74.9788 74.0969 74.5408 74.4038 74.1324 74.9091C73.7359 75.3952 73.3707 75.9808 73.0369 76.6659C72.7186 77.3475 72.4291 78.0469 72.1684 78.7643C71.9077 79.4818 71.6871 80.1242 71.5066 80.6916C71.2104 80.7603 70.9172 80.7708 70.627 80.7231C70.3403 80.691 70.0746 80.572 69.8297 80.366C69.8272 80.2844 69.8665 80.0289 69.9476 79.5995C70.0095 79.1581 70.0786 78.6412 70.1547 78.0487C70.2272 77.4406 70.2709 76.8145 70.2859 76.1705C70.3008 75.5265 70.2504 74.9551 70.1348 74.4563C70.215 74.3063 70.3497 74.1437 70.539 73.9684C70.7439 73.7895 70.9711 73.6712 71.2204 73.6133C71.766 73.4868 72.0929 73.6574 72.2014 74.125C72.2447 74.312 72.2708 74.6016 72.2796 74.9938C72.3004 75.3667 72.3026 75.8014 72.2864 76.298C72.5651 75.6585 72.8901 75.0411 73.2612 74.4459C73.6324 73.8507 74.0408 73.3454 74.4865 72.93C74.9442 72.4954 75.438 72.2166 75.9679 72.0938C76.6381 71.9384 77.1815 72.0505 77.598 72.4303C78.0302 72.8064 78.3095 73.2672 78.4359 73.8128C78.5444 74.2803 78.5676 74.7348 78.5057 75.1762C78.4438 75.6176 78.3765 76.0356 78.3037 76.4303C78.2466 76.8213 78.2577 77.1882 78.3373 77.5311C78.3951 77.7805 78.4912 77.9471 78.6256 78.0309C78.772 78.0955 78.9153 78.1116 79.0556 78.079C79.4296 77.9923 79.7778 77.7227 80.0999 77.2703C80.422 76.8178 80.6991 76.2773 80.9311 75.6486C81.1751 75.0008 81.3723 74.3638 81.5227 73.7376L81.9961 73.9728C81.8459 74.8124 81.6344 75.6005 81.3617 76.3372C81.101 77.0546 80.7587 77.6677 80.3347 78.1767C79.9226 78.6664 79.4049 78.9835 78.7814 79.1281ZM84.0179 78.1603C83.2853 78.3302 82.715 78.2078 82.3068 77.7933C81.9106 77.3596 81.6348 76.8076 81.4794 76.1374C81.3023 75.3737 81.2348 74.4449 81.2769 73.3512C81.3189 72.2574 81.4358 71.097 81.6276 69.87C81.8314 68.6237 82.0814 67.3996 82.3776 66.1977C82.6857 64.9765 83.0192 63.8645 83.3779 62.8615C83.7366 61.8586 84.0902 61.0457 84.4385 60.423C84.7988 59.781 85.1271 59.4257 85.4232 59.357C85.6258 59.31 85.8226 59.3794 86.0135 59.5651C86.2007 59.7352 86.3676 59.9593 86.5142 60.2373C86.6728 60.4962 86.781 60.7503 86.8388 60.9997C86.9364 61.4206 86.9556 61.9992 86.8964 62.7356C86.8492 63.4528 86.7247 64.2618 86.5229 65.1627C86.3368 66.0599 86.0781 66.9986 85.7469 67.9787C85.4277 68.9396 85.0371 69.876 84.5751 70.788C84.1288 71.6962 83.6121 72.5141 83.0252 73.2414C83.0532 73.6455 83.0812 74.0497 83.1092 74.4538C83.1492 74.8387 83.2053 75.187 83.2776 75.4988C83.4077 76.0599 83.597 76.4512 83.8455 76.6728C84.0903 76.8789 84.3608 76.9475 84.657 76.8789C85.0467 76.7885 85.4025 76.5171 85.7247 76.0647C86.0588 75.593 86.3478 75.0333 86.5918 74.3854C86.8478 73.7184 87.0455 73.0484 87.1852 72.3755L87.8167 72.5493C87.4682 74.0919 86.9748 75.3642 86.3366 76.3663C85.6948 77.3527 84.9219 77.9507 84.0179 78.1603ZM83.11 71.6943C83.5062 70.9947 83.8604 70.2556 84.1726 69.477C84.4968 68.6792 84.7724 67.8844 84.9995 67.0926C85.2421 66.2973 85.4356 65.5379 85.5799 64.8146C85.7243 64.0913 85.8148 63.4545 85.8514 62.904C85.9 62.3343 85.8959 61.8917 85.8392 61.5764C85.8356 61.5608 85.8338 61.553 85.8338 61.553C85.8302 61.5374 85.8266 61.5218 85.823 61.5063C85.6983 61.5352 85.5372 61.7614 85.3398 62.1849C85.1543 62.5893 84.945 63.1387 84.7119 63.8334C84.4787 64.528 84.2499 65.3119 84.0253 66.1852C83.8164 67.0549 83.626 67.9695 83.4543 68.9291C83.2946 69.8695 83.1798 70.7912 83.11 71.6943ZM89.2919 76.9868C88.5906 77.1494 88.0532 77.0276 87.6798 76.6215C87.3256 76.2273 87.0853 75.7574 86.9588 75.2119C86.8431 74.7131 86.8036 74.1885 86.8402 73.638C86.8732 73.0719 86.9698 72.5322 87.13 72.0187C87.3057 71.5017 87.5265 71.0727 87.7924 70.7318C88.0703 70.3718 88.3807 70.152 88.7236 70.0725C88.8327 70.0472 88.9628 70.0417 89.1139 70.0559C89.277 70.0509 89.3987 70.0802 89.4792 70.1437C89.3463 70.4208 89.2184 70.7543 89.0952 71.1442C88.9877 71.5305 88.8934 71.9383 88.8123 72.3678C88.7431 72.778 88.707 73.1888 88.7038 73.6001C88.7006 74.0114 88.737 74.3808 88.8129 74.7081C88.8852 75.0198 88.9994 75.2644 89.1554 75.4417C89.3271 75.6154 89.561 75.6679 89.8572 75.5993C90.1533 75.5306 90.4661 75.2856 90.7954 74.8644C91.1367 74.4239 91.4439 73.9421 91.7167 73.4189C91.1132 73.0825 90.6409 72.6747 90.2998 72.1953C89.9551 71.7004 89.6942 71.0711 89.5171 70.3073C89.4412 69.98 89.4324 69.5879 89.4907 69.1309C89.5646 68.6703 89.7446 68.2426 90.0308 67.8477C90.3326 67.4493 90.7953 67.1778 91.4187 67.0332C92.089 66.8778 92.5999 66.9564 92.9516 67.2691C93.3189 67.5781 93.5622 67.9898 93.6814 68.5041C93.8152 69.0808 93.8093 69.7638 93.6638 70.5531C93.5339 71.3387 93.3326 72.0999 93.0599 72.8365C93.2686 72.8866 93.4977 72.8828 93.7471 72.825C93.9809 72.7708 94.2488 72.6512 94.5508 72.4662C94.8528 72.2812 95.1308 72.0278 95.3847 71.7062C95.635 71.3689 95.8031 70.9604 95.8889 70.4806L96.3802 70.687C96.2216 71.5614 95.8973 72.2525 95.4074 72.7603C94.9294 73.2489 94.4176 73.5564 93.8721 73.6829C93.6695 73.7299 93.4632 73.7613 93.2534 73.7771C93.0399 73.7773 92.8402 73.7661 92.6543 73.7435C92.2689 74.4899 91.7875 75.1763 91.2101 75.8029C90.6327 76.4295 89.9933 76.8242 89.2919 76.9868ZM92.1512 72.5298C92.3988 71.8975 92.5828 71.239 92.7032 70.5541C92.8236 69.8692 92.8224 69.2618 92.6995 68.7318C92.6164 68.3733 92.5022 68.1288 92.3569 67.9982C92.2081 67.8521 92.0246 67.8043 91.8063 67.8549C91.5102 67.9235 91.2551 68.2044 91.0409 68.6975C90.8267 69.1907 90.7937 69.7567 90.9419 70.3958C91.0178 70.7231 91.1645 71.1079 91.382 71.5502C91.6151 71.9889 91.8715 72.3154 92.1512 72.5298ZM97.8384 75.3748C97.324 75.494 96.8401 75.4256 96.3865 75.1694C95.9173 74.9168 95.6032 74.4477 95.4442 73.7619C95.3177 73.2163 95.3051 72.5951 95.4063 71.8983C95.5075 71.2014 95.7041 70.4906 95.9959 69.766C96.2878 69.0413 96.6565 68.3646 97.102 67.7357C97.5438 67.0913 98.0481 66.5391 98.6149 66.0792C99.1817 65.6193 99.7846 65.3152 100.424 65.1671C101.094 65.0117 101.703 65.0512 102.25 65.2857C102.797 65.5202 103.135 65.918 103.265 66.4791C103.363 66.9 103.285 67.2382 103.033 67.4939C102.78 67.7496 102.442 67.8855 102.018 67.9015C102.017 67.754 102.008 67.6083 101.991 67.4644C101.99 67.3169 101.971 67.1652 101.935 67.0094C101.863 66.6976 101.735 66.4315 101.553 66.2111C101.37 65.9906 101.076 65.9273 100.671 66.0213C100.235 66.1225 99.8247 66.3735 99.4413 66.7745C99.058 67.1754 98.7119 67.6663 98.4031 68.247C98.1062 68.8086 97.861 69.4157 97.6674 70.0683C97.4702 70.7053 97.3413 71.3182 97.2808 71.9071C97.2202 72.496 97.2405 73.0087 97.3417 73.4451C97.4574 73.9439 97.6944 74.1517 98.0529 74.0686C98.4114 73.9855 98.7691 73.7218 99.126 73.2778C99.4793 72.8181 99.8128 72.2727 100.126 71.6415C100.455 71.0068 100.759 70.3697 101.038 69.7302C101.313 69.0751 101.554 68.5184 101.76 68.0601C101.788 67.9713 101.842 67.9179 101.92 67.8998C101.985 67.901 102.111 67.9128 102.297 67.9354C102.495 67.9388 102.685 67.977 102.866 68.05C103.047 68.1229 103.158 68.2451 103.197 68.4166C103.233 68.5725 103.21 68.7913 103.128 69.0732C103.057 69.336 102.963 69.6371 102.844 69.9766C102.738 70.2969 102.649 70.6214 102.577 70.95C102.518 71.2595 102.519 71.5467 102.58 71.8117C102.627 72.0143 102.727 72.1965 102.879 72.3583C103.028 72.5044 103.227 72.5486 103.477 72.4908C103.851 72.404 104.31 72.0102 104.853 71.3093C105.409 70.5891 105.884 69.4853 106.278 67.9979L106.826 68.3391C106.647 69.2675 106.368 70.1204 105.99 70.898C105.624 71.6563 105.194 72.2815 104.7 72.7737C104.21 73.2815 103.669 73.6041 103.077 73.7414C102.438 73.8896 101.915 73.7972 101.51 73.4642C101.104 73.1312 100.831 72.7345 100.692 72.2742C100.685 72.243 100.679 72.2196 100.676 72.204C100.672 72.1884 100.668 72.1729 100.665 72.1573C100.215 73.05 99.7753 73.776 99.3466 74.3353C98.9334 74.8909 98.4307 75.2375 97.8384 75.3748ZM108.439 72.4982C108.143 72.5669 107.821 72.5594 107.473 72.4758C107.144 72.4042 106.842 72.236 106.567 71.9713C106.277 71.7101 106.076 71.338 105.964 70.8548C105.844 70.3404 105.835 69.7348 105.936 69.038C106.038 68.3411 106.225 67.6243 106.497 66.8877C106.786 66.1475 107.149 65.4473 107.587 64.7873C108.041 64.1236 108.549 63.5541 109.113 63.0786C109.676 62.6031 110.285 62.2895 110.939 62.1377C111.298 62.0546 111.593 62.0519 111.824 62.1296C112.052 62.1917 112.197 62.3553 112.258 62.6202C112.276 62.6982 112.282 62.7953 112.277 62.9116C112.267 63.0124 112.209 63.1162 112.102 63.223C112.018 63.144 111.895 63.1069 111.732 63.1119C111.565 63.1012 111.396 63.1158 111.224 63.1556C110.71 63.2748 110.253 63.5367 109.855 63.9413C109.452 64.3303 109.108 64.7959 108.823 65.3383C108.539 65.8806 108.309 66.4511 108.136 67.0497C107.979 67.6447 107.88 68.2097 107.839 68.7446C107.796 69.2639 107.815 69.7028 107.898 70.0613C107.967 70.3574 108.085 70.5846 108.253 70.7427C108.418 70.8852 108.625 70.9276 108.874 70.8698C109.295 70.7722 109.738 70.415 110.202 69.7981C110.679 69.162 111.115 68.3137 111.509 67.2531C111.916 66.1734 112.219 64.9288 112.418 63.5195C112.554 62.5516 112.703 61.5644 112.864 60.5581C113.021 59.5362 113.188 58.5532 113.363 57.6092C113.538 56.6652 113.728 55.8166 113.931 55.0632C114.149 54.3063 114.377 53.695 114.614 53.2295C114.863 52.7447 115.128 52.4698 115.408 52.4048C115.58 52.365 115.744 52.4008 115.901 52.5122C116.071 52.6043 116.179 52.7517 116.226 52.9544C116.287 53.2193 116.254 53.6787 116.126 54.3324C116.011 54.9669 115.844 55.7364 115.627 56.6409C115.425 57.5417 115.201 58.5217 114.953 59.5809C114.718 60.6209 114.514 61.6867 114.34 62.7782C114.178 63.8505 114.076 64.9005 114.035 65.9283C114.006 66.9369 114.09 67.8621 114.285 68.7037C114.371 69.0778 114.462 69.3278 114.557 69.4536C114.664 69.5602 114.803 69.5936 114.975 69.5539C115.317 69.4744 115.669 69.2534 116.028 68.8908C116.387 68.5283 116.726 68.0392 117.043 67.4237C117.356 66.7926 117.607 66.0692 117.796 65.2535L118.327 65.5245C118.183 66.4613 117.922 67.3184 117.544 68.096C117.165 68.8735 116.714 69.5119 116.189 70.0114C115.668 70.5264 115.111 70.8525 114.519 70.9899C113.88 71.138 113.389 71.0384 113.046 70.691C112.702 70.3436 112.467 69.8971 112.341 69.3515C112.283 69.1022 112.241 68.8492 112.214 68.5925C112.199 68.3167 112.187 68.0487 112.175 67.7885C111.855 68.6019 111.487 69.3524 111.071 70.04C110.668 70.7084 110.245 71.2581 109.803 71.6891C109.361 72.1201 108.906 72.3898 108.439 72.4982ZM136.616 65.9897C136.008 66.1306 135.515 66.0562 135.135 65.7664C134.756 65.4765 134.509 65.0822 134.393 64.5835C134.31 64.225 134.281 63.8538 134.307 63.47C134.333 63.0863 134.361 62.7103 134.391 62.3421C134.417 61.9583 134.397 61.6261 134.332 61.3455C134.271 61.0806 134.175 60.914 134.044 60.8458C133.925 60.7583 133.788 60.7327 133.632 60.7688C133.273 60.852 132.916 61.2223 132.559 61.8798C132.218 62.5338 131.818 63.4642 131.359 64.6711C131.196 65.103 131.054 65.5547 130.934 66.0261C130.809 66.482 130.694 66.8701 130.588 67.1904C130.447 67.2229 130.255 67.2429 130.01 67.2503C129.781 67.2542 129.57 67.2292 129.377 67.1754C129.187 67.1372 129.076 67.048 129.044 66.9077C129.011 66.7675 129.026 66.4766 129.088 66.0352C129.15 65.5939 129.221 65.0847 129.3 64.5078C129.377 63.9153 129.433 63.3438 129.47 62.7933C129.503 62.2272 129.477 61.7649 129.394 61.4064C129.344 61.1882 129.265 61.0258 129.158 60.9192C129.051 60.8125 128.912 60.7791 128.741 60.8189C128.413 60.8947 128.061 61.1817 127.684 61.6798C127.322 62.1743 126.958 62.8007 126.592 63.559C126.238 64.2981 125.925 65.1097 125.654 65.9938C125.395 66.8587 125.215 67.7134 125.115 68.5578C124.944 68.5975 124.724 68.6073 124.457 68.5872C124.193 68.5827 123.955 68.5476 123.742 68.4818C123.534 68.4317 123.42 68.3676 123.402 68.2897C123.399 68.2741 123.403 68.0433 123.414 67.5971C123.422 67.1354 123.43 66.567 123.438 65.8918C123.445 65.2166 123.457 64.524 123.473 63.814C123.489 63.1041 123.502 62.4852 123.511 61.9575C123.518 61.7753 123.655 61.5874 123.922 61.3941C124.186 61.1851 124.427 61.0554 124.645 61.0048C124.863 60.9542 125.066 60.9809 125.255 61.0851C125.443 61.1892 125.565 61.3582 125.619 61.592C125.655 61.7479 125.676 61.9811 125.682 62.2917C125.689 62.6023 125.688 62.9555 125.682 63.3512C125.908 62.8389 126.151 62.3308 126.412 61.8268C126.685 61.3037 126.977 60.8255 127.287 60.3922C127.613 59.9554 127.947 59.5904 128.289 59.2975C128.648 59.0009 129.022 58.8074 129.411 58.7171C129.988 58.5834 130.427 58.7034 130.727 59.0773C131.023 59.4356 131.228 59.8563 131.34 60.3395C131.387 60.5421 131.418 60.7483 131.434 60.9582C131.446 61.1525 131.444 61.3581 131.429 61.5752C131.426 61.7731 131.408 62.0154 131.376 62.302C131.571 61.7969 131.798 61.3254 132.058 60.8874C132.33 60.4302 132.643 60.0455 132.998 59.7333C133.352 59.4212 133.756 59.2127 134.208 59.1079C134.815 58.9669 135.28 59.0564 135.6 59.3763C135.917 59.6806 136.126 60.0509 136.227 60.4873C136.321 60.8926 136.351 61.3375 136.315 61.822C136.292 62.2873 136.257 62.7389 136.21 63.1767C136.176 63.5952 136.191 63.9448 136.256 64.2254C136.293 64.3812 136.366 64.5203 136.476 64.6425C136.583 64.7491 136.753 64.7753 136.987 64.7211C137.408 64.6235 137.768 64.3347 138.067 63.8547C138.367 63.3747 138.615 62.8162 138.812 62.1792C139.021 61.523 139.183 60.9106 139.298 60.342L139.809 60.7409C139.708 61.4377 139.532 62.1683 139.283 62.9324C139.045 63.6774 138.711 64.3296 138.283 64.8889C137.857 65.4637 137.302 65.8307 136.616 65.9897ZM142.605 64.9213C141.608 65.1526 140.773 65.0587 140.101 64.6397C139.448 64.2326 139.028 63.6238 138.84 62.8133C138.681 62.1275 138.684 61.363 138.85 60.5198C139.028 59.6573 139.335 58.8223 139.772 58.0148C140.206 57.1916 140.732 56.4865 141.351 55.8995C141.971 55.3124 142.639 54.9357 143.356 54.7695C143.761 54.6755 144.168 54.6961 144.577 54.8312C144.998 54.9471 145.281 55.3168 145.426 55.9402C145.563 56.5325 145.52 57.1256 145.296 57.7194C145.073 58.3133 144.719 58.8797 144.237 59.4187C143.754 59.9576 143.193 60.4409 142.553 60.8685C141.925 61.2769 141.269 61.6014 140.586 61.8419C140.585 61.9079 140.585 61.9816 140.588 62.0632C140.602 62.1255 140.627 62.2346 140.664 62.3905C140.682 62.4684 140.722 62.6069 140.785 62.8059C140.859 62.9857 140.976 63.1721 141.136 63.365C141.296 63.5579 141.518 63.7034 141.804 63.8015C142.089 63.8995 142.45 63.8979 142.887 63.7967C143.541 63.645 144.154 63.3139 144.726 62.8037C145.309 62.2742 145.819 61.6387 146.255 60.8971C146.706 60.1519 147.04 59.36 147.256 58.5215L147.81 58.7872C147.606 59.8199 147.251 60.7647 146.743 61.6215C146.251 62.4747 145.645 63.1901 144.925 63.7677C144.22 64.3416 143.447 64.7262 142.605 64.9213ZM140.642 60.9173C141.037 60.7765 141.456 60.5315 141.901 60.182C142.345 59.8326 142.752 59.4262 143.121 58.9629C143.505 58.496 143.797 58.0178 143.996 57.5283C144.19 57.0232 144.237 56.5525 144.136 56.116C144.096 55.9446 144.038 55.8349 143.961 55.787C143.885 55.7391 143.776 55.7315 143.636 55.764C143.277 55.8471 142.934 56.0663 142.606 56.4216C142.274 56.7614 141.97 57.185 141.693 57.6926C141.413 58.1846 141.183 58.7143 141.002 59.2817C140.822 59.8491 140.702 60.3943 140.642 60.9173ZM62.3882 119.104C62.2168 119.144 62.0015 119.136 61.7424 119.081C61.4677 119.03 61.2067 118.86 60.9593 118.573C60.7 118.304 60.4963 117.851 60.3481 117.212C60.1927 116.541 60.1054 115.634 60.0863 114.488C60.0551 113.362 60.0904 112.098 60.1921 110.694C60.2746 109.279 60.42 107.817 60.6283 106.307C60.8522 104.793 61.1199 103.327 61.4314 101.907C61.7549 100.469 62.1248 99.1599 62.5409 97.9794C62.9726 96.7953 63.4453 95.8234 63.959 95.0638C64.4727 94.3041 65.0335 93.8538 65.6413 93.7129C66.0466 93.6189 66.3405 93.6822 66.523 93.9026C66.7019 94.1075 66.8275 94.3658 66.8998 94.6776C67.0551 95.3478 67.038 96.1237 66.8482 97.0054C66.674 97.8834 66.3769 98.7981 65.957 99.7496C65.5334 100.685 65.0229 101.6 64.4254 102.494C63.8435 103.385 63.2147 104.179 62.539 104.878C62.5128 105.048 62.4866 105.219 62.4604 105.389C62.4342 105.559 62.408 105.73 62.3818 105.9C62.5677 105.923 62.7255 106.001 62.8551 106.135C63.0004 106.266 63.1006 106.415 63.156 106.583C63.4361 107.224 63.6999 107.795 63.9475 108.296C64.1914 108.782 64.4724 109.144 64.7905 109.382C65.1241 109.617 65.5325 109.678 66.0157 109.566C66.5612 109.439 66.9974 109.125 67.3243 108.622C67.6512 108.119 67.9479 107.451 68.2145 106.617L68.8156 106.872C68.5481 107.985 68.1568 108.848 67.6418 109.46C67.1231 110.057 66.6144 110.413 66.1156 110.528C65.8506 110.59 65.5574 110.6 65.236 110.56C64.9301 110.516 64.6212 110.423 64.3093 110.282C64.5178 111.252 64.6213 112.23 64.6199 113.216C64.6377 114.213 64.556 115.136 64.3745 115.982C64.1931 116.829 63.9288 117.531 63.5816 118.088C63.2536 118.657 62.8558 118.995 62.3882 119.104ZM62.7067 117.502C62.8782 117.463 63.0231 117.273 63.1415 116.934C63.2755 116.59 63.3799 116.156 63.4549 115.629C63.53 115.102 63.5767 114.525 63.5953 113.897C63.6174 113.284 63.6084 112.678 63.5682 112.08C63.5316 111.497 63.4591 110.972 63.3507 110.504C63.2459 110.052 63.0992 109.667 62.9106 109.35C62.734 109.013 62.4704 108.655 62.1198 108.277C62.0107 109.435 61.9314 110.546 61.8822 111.608C61.8329 112.671 61.8243 113.626 61.8564 114.472C61.892 115.334 61.9731 116.038 62.0996 116.584C62.255 117.254 62.4574 117.56 62.7067 117.502ZM62.8376 103.084C63.5824 101.975 64.1923 100.922 64.6674 99.9254C65.1424 98.9283 65.4773 98.0705 65.6721 97.352C65.8788 96.6142 65.9514 96.1128 65.89 95.8479C65.8611 95.7232 65.7843 95.6753 65.6596 95.7042C65.2855 95.7909 64.9237 96.1787 64.5743 96.8674C64.2212 97.5405 63.8995 98.4199 63.6092 99.5055C63.3189 100.591 63.0617 101.784 62.8376 103.084ZM70.6314 111.083C69.9144 111.249 69.3339 111.154 68.8898 110.797C68.4493 110.455 68.1568 109.973 68.0122 109.349C67.8243 108.539 67.7893 107.75 67.9073 106.984C68.0408 106.214 68.2607 105.498 68.567 104.835C68.8853 104.154 69.2547 103.551 69.6751 103.026C70.0955 102.502 70.5064 102.078 70.9078 101.755C71.3248 101.429 71.6814 101.231 71.9775 101.162C72.0554 101.144 72.1682 101.134 72.3157 101.133C72.4632 101.132 72.5826 101.186 72.6738 101.296C72.7133 101.254 72.7547 101.22 72.7978 101.194C72.8566 101.164 72.9171 101.141 72.9794 101.127C73.4159 101.026 73.7253 101.085 73.9079 101.306C74.106 101.523 74.2393 101.779 74.308 102.075C74.3694 102.34 74.362 102.662 74.2856 103.041C74.2248 103.417 74.1653 103.833 74.107 104.29C74.0607 104.728 74.099 105.212 74.2218 105.742C74.2869 106.022 74.4154 106.222 74.6074 106.342C74.8114 106.443 75.0225 106.468 75.2407 106.417C75.8486 106.276 76.3166 106.028 76.6449 105.673C76.9695 105.302 77.2041 104.861 77.3487 104.352C77.4932 103.842 77.5898 103.302 77.6384 102.732C77.6834 102.147 77.7223 101.571 77.7553 101.005C77.5753 100.866 77.46 100.688 77.4094 100.469C77.3299 100.127 77.3314 99.8142 77.4138 99.5322C77.4927 99.2347 77.6016 98.996 77.7405 98.816C77.8914 98.6167 78.0214 98.5045 78.1305 98.4792C78.3799 98.4213 78.5496 98.4805 78.6398 98.6567C78.7299 98.8329 78.7876 98.9756 78.8129 99.0847C78.831 99.1626 78.8167 99.3137 78.7702 99.538C78.7392 99.7587 78.7328 99.908 78.7509 99.986C78.787 100.142 78.9496 100.277 79.2388 100.39C79.5399 100.485 79.8794 100.603 80.2573 100.745C80.6352 100.888 80.9886 101.101 81.3175 101.386C81.6584 101.652 81.8866 102.035 82.0023 102.533C82.1107 103.001 82.1256 103.49 82.047 104.001C81.9683 104.512 81.8825 104.992 81.7894 105.441C81.6963 105.889 81.6841 106.262 81.7528 106.558C81.807 106.792 81.8977 106.935 82.0249 106.987C82.164 107.021 82.3115 107.02 82.4674 106.983C82.8259 106.9 83.1746 106.704 83.5137 106.396C83.8648 106.068 84.1858 105.682 84.4767 105.236C84.7677 104.791 85.0161 104.339 85.2219 103.881C85.424 103.407 85.5573 102.99 85.6217 102.63L86.1652 102.849C86.0089 103.592 85.7494 104.35 85.3868 105.124C85.0243 105.898 84.5662 106.579 84.0128 107.167C83.4749 107.752 82.8553 108.125 82.1539 108.288C81.5772 108.422 81.0657 108.376 80.6193 108.151C80.1886 107.922 79.9172 107.566 79.8051 107.083C79.7003 106.631 79.6914 106.132 79.7784 105.587C79.8654 105.041 79.956 104.511 80.0502 103.996C80.1444 103.482 80.1481 103.037 80.0614 102.663C79.9675 102.258 79.7591 101.961 79.4363 101.773C79.1099 101.57 78.7805 101.424 78.4483 101.337C78.3913 101.942 78.3146 102.567 78.2181 103.214C78.1372 103.857 77.991 104.465 77.7793 105.04C77.564 105.599 77.2431 106.092 76.8166 106.52C76.3865 106.931 75.7974 107.224 75.0492 107.398C74.8466 107.445 74.6056 107.468 74.3262 107.467C74.0623 107.462 73.8374 107.449 73.6515 107.426C73.4222 108.35 73.0261 109.156 72.4632 109.845C71.9122 110.515 71.3016 110.927 70.6314 111.083ZM70.8046 109.811C71.0072 109.764 71.2331 109.605 71.4823 109.333C71.747 109.058 71.9895 108.723 72.2098 108.327C72.442 107.912 72.6005 107.497 72.6852 107.083C72.2567 106.723 71.9412 106.106 71.7389 105.233C71.6955 105.046 71.6611 104.792 71.6355 104.469C71.6256 104.143 71.6295 103.805 71.6471 103.456C71.6767 103.088 71.7345 102.771 71.8206 102.504C71.5775 102.873 71.3357 103.282 71.0951 103.732C70.8665 104.163 70.6589 104.613 70.4723 105.084C70.2821 105.538 70.1249 105.994 70.0006 106.449C69.8727 106.89 69.7916 107.319 69.7573 107.738C69.7193 108.141 69.7401 108.514 69.8196 108.856C69.9172 109.277 70.0482 109.559 70.2126 109.702C70.3891 109.825 70.5864 109.861 70.8046 109.811ZM94.301 105.545C93.5684 105.715 92.9981 105.593 92.5899 105.178C92.1937 104.745 91.9179 104.193 91.7625 103.522C91.5854 102.759 91.5179 101.83 91.56 100.736C91.602 99.6425 91.7189 98.4821 91.9107 97.255C92.1145 96.0088 92.3645 94.7847 92.6607 93.5828C92.9688 92.3616 93.3023 91.2496 93.661 90.2466C94.0197 89.2437 94.3733 88.4308 94.7216 87.808C95.0819 87.1661 95.4102 86.8108 95.7063 86.7421C95.9089 86.6951 96.1057 86.7645 96.2966 86.9501C96.4838 87.1203 96.6507 87.3443 96.7973 87.6224C96.9559 87.8813 97.0641 88.1354 97.1219 88.3848C97.2195 88.8056 97.2387 89.3843 97.1795 90.1207C97.1323 90.8379 97.0078 91.6469 96.806 92.5477C96.6199 93.445 96.3612 94.3836 96.03 95.3638C95.7108 96.3247 95.3202 97.2611 94.8582 98.173C94.4119 99.0813 93.8952 99.8991 93.3083 100.626C93.3363 101.031 93.3643 101.435 93.3923 101.839C93.4323 102.224 93.4884 102.572 93.5607 102.884C93.6908 103.445 93.8801 103.836 94.1286 104.058C94.3734 104.264 94.6439 104.333 94.9401 104.264C95.3298 104.174 95.6856 103.902 96.0078 103.45C96.3419 102.978 96.6309 102.418 96.8749 101.771C97.1309 101.103 97.3286 100.433 97.4683 99.7605L98.0998 99.9344C97.7513 101.477 97.2579 102.749 96.6197 103.751C95.9779 104.738 95.205 105.336 94.301 105.545ZM93.3931 99.0794C93.7893 98.3798 94.1435 97.6407 94.4557 96.8621C94.7799 96.0642 95.0555 95.2694 95.2826 94.4777C95.5252 93.6823 95.7187 92.923 95.863 92.1997C96.0074 91.4764 96.0979 90.8395 96.1345 90.289C96.1831 89.7193 96.179 89.2768 96.1223 88.9615C96.1187 88.9459 96.1169 88.9381 96.1169 88.9381C96.1133 88.9225 96.1097 88.9069 96.1061 88.8913C95.9814 88.9202 95.8203 89.1465 95.6229 89.57C95.4374 89.9743 95.2281 90.5238 94.995 91.2184C94.7618 91.913 94.533 92.697 94.3084 93.5703C94.0995 94.4399 93.9091 95.3546 93.7374 96.3141C93.5777 97.2545 93.4629 98.1763 93.3931 99.0794ZM99.4226 104.777C98.9082 104.896 98.4242 104.828 97.9707 104.571C97.5015 104.319 97.1874 103.85 97.0284 103.164C96.9019 102.618 96.8893 101.997 96.9905 101.3C97.0917 100.603 97.2882 99.8926 97.5801 99.168C97.872 98.4433 98.2407 97.7666 98.6861 97.1377C99.128 96.4932 99.6323 95.9411 100.199 95.4812C100.766 95.0213 101.369 94.7172 102.008 94.5691C102.678 94.4137 103.287 94.4532 103.834 94.6877C104.381 94.9222 104.719 95.32 104.85 95.8811C104.947 96.3019 104.87 96.6402 104.617 96.8959C104.364 97.1516 104.026 97.2875 103.603 97.3035C103.601 97.156 103.592 97.0103 103.575 96.8664C103.574 96.7189 103.555 96.5672 103.519 96.4113C103.447 96.0996 103.319 95.8335 103.137 95.613C102.954 95.3926 102.66 95.3293 102.255 95.4233C101.819 95.5245 101.409 95.7755 101.025 96.1765C100.642 96.5774 100.296 97.0683 99.9872 97.649C99.6904 98.2106 99.4452 98.8177 99.2516 99.4702C99.0544 100.107 98.9255 100.72 98.8649 101.309C98.8044 101.898 98.8247 102.411 98.9259 102.847C99.0415 103.346 99.2786 103.554 99.6371 103.471C99.9956 103.387 100.353 103.124 100.71 102.68C101.063 102.22 101.397 101.675 101.71 101.044C102.04 100.409 102.344 99.7717 102.622 99.1322C102.897 98.4771 103.138 97.9204 103.344 97.4621C103.372 97.3733 103.426 97.3199 103.504 97.3018C103.57 97.3029 103.696 97.3148 103.881 97.3374C104.079 97.3408 104.269 97.379 104.45 97.4519C104.631 97.5249 104.742 97.6471 104.781 97.8186C104.818 97.9744 104.794 98.1933 104.712 98.4752C104.641 98.7379 104.547 99.039 104.429 99.3786C104.322 99.6989 104.233 100.023 104.162 100.352C104.102 100.661 104.103 100.949 104.164 101.214C104.211 101.416 104.311 101.598 104.463 101.76C104.612 101.906 104.811 101.951 105.061 101.893C105.435 101.806 105.894 101.412 106.438 100.711C106.993 99.9911 107.468 98.8873 107.862 97.3998L108.41 97.7411C108.231 98.6695 107.952 99.5224 107.574 100.3C107.208 101.058 106.778 101.683 106.284 102.176C105.794 102.683 105.253 103.006 104.661 103.143C104.022 103.292 103.5 103.199 103.094 102.866C102.688 102.533 102.416 102.137 102.276 101.676C102.269 101.645 102.263 101.622 102.26 101.606C102.256 101.59 102.252 101.575 102.249 101.559C101.799 102.452 101.36 103.178 100.931 103.737C100.518 104.293 100.015 104.639 99.4226 104.777ZM110.624 102.155C109.938 102.314 109.338 102.24 108.823 101.932C108.308 101.624 107.955 101.057 107.764 100.231C107.615 99.5923 107.548 98.7703 107.561 97.7653C107.59 96.7567 107.674 95.7025 107.813 94.6026C107.697 94.5968 107.559 94.6041 107.4 94.6246C107.252 94.626 107.101 94.6118 106.946 94.5819L106.778 93.8572C107.035 93.8305 107.243 93.8069 107.402 93.7864C107.578 93.7622 107.753 93.738 107.928 93.7139C108.063 92.8119 108.23 91.9357 108.427 91.0852C108.636 90.2155 108.857 89.4334 109.09 88.7388C109.339 88.0405 109.595 87.4802 109.858 87.0578C110.118 86.6198 110.38 86.3701 110.645 86.3087C110.801 86.2725 110.964 86.3006 111.133 86.3927C111.298 86.4693 111.407 86.6167 111.457 86.8349C111.529 87.1466 111.469 87.6288 111.275 88.2814C111.097 88.9304 110.865 89.6987 110.578 90.5865C110.287 91.4586 110.025 92.3817 109.791 93.3558C109.916 93.3269 110.04 93.2979 110.165 93.269C110.29 93.2401 110.407 93.213 110.516 93.1877C111.202 93.0287 111.815 92.8782 112.357 92.7361C112.911 92.5748 113.469 92.3962 114.032 92.2001L114.21 92.9716C113.371 93.2483 112.599 93.4932 111.892 93.7062C111.186 93.9192 110.508 94.1094 109.857 94.2767C109.81 94.2876 109.763 94.2984 109.716 94.3092C109.67 94.3201 109.623 94.3309 109.576 94.3418C109.426 95.1814 109.32 96.0354 109.259 96.9037C109.209 97.7528 109.273 98.5593 109.45 99.323C109.598 99.962 109.804 100.391 110.068 100.609C110.332 100.827 110.683 100.885 111.119 100.784C111.898 100.603 112.612 100.068 113.26 99.1787C113.92 98.2702 114.413 97.1376 114.739 95.7809L115.12 95.9388C114.928 96.9524 114.615 97.9037 114.18 98.7928C113.762 99.6783 113.25 100.413 112.646 100.996C112.046 101.595 111.372 101.982 110.624 102.155ZM117.933 100.411C116.935 100.642 116.101 100.548 115.429 100.129C114.776 99.7224 114.355 99.1136 114.168 98.3031C114.009 97.6173 114.012 96.8528 114.178 96.0095C114.356 95.1471 114.663 94.3121 115.1 93.5045C115.533 92.6814 116.059 91.9763 116.679 91.3892C117.298 90.8021 117.966 90.4255 118.683 90.2592C119.089 90.1653 119.496 90.1859 119.905 90.3209C120.326 90.4368 120.609 90.8065 120.753 91.43C120.891 92.0223 120.847 92.6153 120.624 93.2092C120.4 93.8031 120.047 94.3695 119.564 94.9084C119.082 95.4474 118.52 95.9307 117.88 96.3583C117.252 96.7667 116.597 97.0911 115.913 97.3317C115.912 97.3977 115.913 97.4714 115.915 97.553C115.93 97.6153 115.955 97.7244 115.991 97.8803C116.009 97.9582 116.05 98.0967 116.112 98.2957C116.187 98.4755 116.304 98.6619 116.463 98.8548C116.623 99.0477 116.846 99.1932 117.131 99.2912C117.417 99.3893 117.778 99.3877 118.214 99.2865C118.869 99.1347 119.482 98.8037 120.053 98.2934C120.637 97.7639 121.147 97.1284 121.582 96.3868C122.034 95.6416 122.367 94.8498 122.584 94.0113L123.138 94.2769C122.934 95.3097 122.578 96.2545 122.071 97.1113C121.579 97.9644 120.972 98.6798 120.252 99.2574C119.548 99.8314 118.775 100.216 117.933 100.411ZM115.97 96.407C116.364 96.2663 116.784 96.0212 117.228 95.6718C117.673 95.3223 118.08 94.916 118.448 94.4527C118.833 93.9858 119.124 93.5076 119.323 93.0181C119.518 92.513 119.565 92.0422 119.464 91.6058C119.424 91.4343 119.366 91.3247 119.289 91.2768C119.212 91.2289 119.104 91.2212 118.963 91.2537C118.605 91.3369 118.261 91.5561 117.933 91.9114C117.601 92.2511 117.297 92.6748 117.021 93.1823C116.741 93.6743 116.51 94.204 116.33 94.7715C116.149 95.3389 116.029 95.8841 115.97 96.407ZM127.417 97.7687C126.84 97.9024 126.336 97.855 125.906 97.6264C125.479 97.4133 125.205 97.0496 125.086 96.5353C124.985 96.0989 124.986 95.606 125.088 95.0566C125.191 94.5072 125.295 93.9657 125.401 93.4319C125.523 92.8945 125.541 92.4388 125.454 92.0647C125.371 91.7062 125.185 91.4372 124.897 91.2576C124.606 91.0624 124.286 90.923 123.938 90.8394C123.794 91.7762 123.597 92.7004 123.349 93.6121C123.112 94.5046 122.914 95.2076 122.754 95.721L122.246 95.1243C122.37 94.6685 122.525 94.0249 122.71 93.1936C122.895 92.3624 123.045 91.449 123.159 90.4535C122.967 90.3337 122.84 90.1414 122.778 89.8764C122.684 89.4712 122.721 89.0604 122.887 88.6441C123.053 88.2278 123.253 87.9925 123.487 87.9383C123.674 87.8949 123.832 87.9733 123.96 88.1735C124.101 88.3544 124.18 88.4838 124.198 88.5618C124.216 88.6397 124.21 88.789 124.179 89.0097C124.164 89.2268 124.151 89.3857 124.142 89.4865C124.197 89.6543 124.369 89.795 124.658 89.9087C124.959 90.0031 125.299 90.1215 125.677 90.2638C126.055 90.4061 126.406 90.612 126.732 90.8815C127.057 91.151 127.277 91.5351 127.393 92.0339C127.498 92.4859 127.503 92.9692 127.409 93.4838C127.315 93.9984 127.213 94.4818 127.105 94.934C126.996 95.3862 126.976 95.7604 127.045 96.0566C127.095 96.2748 127.184 96.4102 127.311 96.4628C127.45 96.4963 127.598 96.4949 127.754 96.4588C128.128 96.372 128.492 96.1726 128.847 95.8604C129.198 95.5327 129.527 95.1444 129.833 94.6955C130.14 94.2467 130.396 93.7931 130.602 93.3348C130.804 92.8609 130.945 92.4422 131.025 92.0787L131.684 92.3695C131.543 93.1084 131.268 93.8702 130.859 94.6549C130.446 95.424 129.945 96.0985 129.357 96.6784C128.765 97.2426 128.118 97.6061 127.417 97.7687Z" fill="#5D5FEF"/>
<path d="M46.4034 56.3226C47.2313 56.2916 47.9275 56.9375 47.9585 57.7653C47.9896 58.5932 47.3436 59.2894 46.5158 59.3205L46.4034 56.3226ZM11.7533 3.9735C12.4302 3.49582 13.3661 3.65728 13.8438 4.33412L21.628 15.3639C22.1057 16.0407 21.9442 16.9766 21.2674 17.4543C20.5905 17.932 19.6546 17.7706 19.1769 17.0937L12.2576 7.28948L2.45339 14.2088C1.77655 14.6865 0.840625 14.525 0.362946 13.8482C-0.114733 13.1713 0.0467193 12.2354 0.72356 11.7577L11.7533 3.9735ZM46.5158 59.3205C39.3245 59.59 28.5871 56.9742 20.5722 48.7203C12.4927 40.4 7.40589 26.5907 11.1401 4.94404L14.0964 5.45403C10.4829 26.401 15.4698 39.1595 22.7244 46.6304C30.0435 54.1677 39.9006 56.5663 46.4034 56.3226L46.5158 59.3205Z" fill="#5D5FEF"/>
<defs>
<clipPath id="clip0_8_284">
<rect width="31" height="30" fill="white" transform="translate(61.2132 28.1304) rotate(-13.05)"/>
</clipPath>
</defs>
</svg>
