<svg width="180" height="181" viewBox="0 0 180 181" fill="none" xmlns="http://www.w3.org/2000/svg">
<g clip-path="url(#clip0_2_188)">
<path d="M38.9379 40.2507H141.062V140.247H38.9379V40.2507Z" fill="url(#paint0_linear_2_188)"/>
<path d="M76.1923 91.1574H85.2444L80.7184 73.6045L76.1923 91.1574ZM46.6641 48.0807V132.467H133.465V48.0807H46.6641ZM90.2123 110.403L86.9003 98.9957H74.6465L71.3346 110.403H62.9446L74.7569 70.072V65.6562H86.0173L99.4853 110.403H90.2123V110.403ZM112.513 110.403H103.46V76.3647H112.513V110.403ZM108.041 72.2801C105.45 72.2801 103.349 70.2041 103.349 67.6435C103.349 65.0828 105.449 63.0068 108.041 63.0068C110.633 63.0068 112.733 65.0828 112.733 67.6435C112.733 70.2041 110.633 72.2801 108.041 72.2801Z" fill="url(#paint1_linear_2_188)"/>
</g>
<defs>
<linearGradient id="paint0_linear_2_188" x1="140.53" y1="39.7186" x2="40.4452" y2="139.804" gradientUnits="userSpaceOnUse">
<stop stop-color="#FFAA2A"/>
<stop offset="1" stop-color="#FFC06C"/>
</linearGradient>
<linearGradient id="paint1_linear_2_188" x1="90.0646" y1="47.939" x2="90.0646" y2="132.041" gradientUnits="userSpaceOnUse">
<stop stop-color="#251200"/>
<stop offset="1"/>
</linearGradient>
<clipPath id="clip0_2_188">
<rect width="102.124" height="100" fill="white" transform="translate(38.9379 40.249)"/>
</clipPath>
</defs>
</svg>
