<svg width="180" height="181" viewBox="0 0 180 181" fill="none" xmlns="http://www.w3.org/2000/svg">
<path d="M84.6537 49.3526L47.3707 64.7796C45.2974 65.6376 45.3189 68.583 47.4052 69.41L84.8436 84.2565C88.133 85.5611 91.7963 85.5611 95.0857 84.2565L132.525 69.4094C134.61 68.583 134.633 65.6382 132.559 64.7801L95.2767 49.352C91.8754 47.9445 88.0545 47.9445 84.6531 49.352" fill="#FCB400"/>
<path d="M93.2866 92.363V129.452C93.2866 131.216 95.0654 132.424 96.7052 131.774L138.423 115.581C138.888 115.397 139.287 115.077 139.569 114.663C139.85 114.249 140 113.76 140 113.259V76.1707C140 74.4066 138.221 73.1987 136.581 73.8487L94.8636 90.0416C94.3984 90.2261 93.9994 90.5462 93.7182 90.9602C93.437 91.3742 93.2867 91.8631 93.2866 92.3636" fill="#18BFFF"/>
<path d="M83.5447 94.277L71.1638 100.255L69.9067 100.863L43.7713 113.385C42.1151 114.185 40 112.977 40 111.137V76.3262C40 75.6603 40.3414 75.0855 40.7992 74.6531C40.9871 74.466 41.2002 74.3062 41.4323 74.1783C42.0563 73.8035 42.9471 73.7035 43.7046 74.0031L83.3367 89.7065C85.3512 90.5057 85.5095 93.3285 83.5447 94.2775" fill="#F82B60"/>
<path d="M83.5447 94.277L71.1637 100.255L40.7992 74.6525C40.9871 74.4657 41.2001 74.3061 41.4323 74.1783C42.0563 73.8035 42.9471 73.7035 43.7045 74.0031L83.3366 89.7065C85.3512 90.5057 85.5094 93.3285 83.5447 94.2775" fill="black" fill-opacity="0.25"/>
</svg>
