<svg width="180" height="181" viewBox="0 0 180 181" fill="none" xmlns="http://www.w3.org/2000/svg">
<g clip-path="url(#clip0_2_192)">
<path d="M135.166 127.735C135.203 134.601 129.666 140.192 122.805 140.229C122.295 140.233 121.78 140.204 121.274 140.142C114.906 139.2 110.241 133.659 110.398 127.225V53.2524C110.246 46.8103 114.923 41.2692 121.295 40.3354C128.111 39.5373 134.286 44.4162 135.084 51.2326C135.142 51.7345 135.17 52.2363 135.166 52.7423V127.735Z" fill="#F9AB00"/>
<path d="M57.22 115.476C64.0611 115.476 69.6063 121.022 69.6063 127.863C69.6063 134.704 64.0611 140.249 57.22 140.249C50.3789 140.249 44.8336 134.704 44.8336 127.863C44.8336 121.022 50.3789 115.476 57.22 115.476ZM89.8087 77.9387C82.9347 78.3171 77.6034 84.0805 77.7638 90.9627V124.23C77.7638 133.26 81.7376 138.739 87.5585 139.908C94.2762 141.269 100.821 136.929 102.183 130.212C102.351 129.389 102.434 128.554 102.43 127.715V90.3868C102.442 83.521 96.8884 77.9469 90.0226 77.9346C89.9527 77.9346 89.8787 77.9346 89.8087 77.9387Z" fill="#E37400"/>
</g>
<defs>
<clipPath id="clip0_2_192">
<rect width="90.3328" height="100" fill="white" transform="translate(44.8336 40.249)"/>
</clipPath>
</defs>
</svg>
