<svg width="180" height="181" viewBox="0 0 180 181" fill="none" xmlns="http://www.w3.org/2000/svg">
<g clip-path="url(#clip0_10_407)">
<path fill-rule="evenodd" clip-rule="evenodd" d="M53.3162 40.261C46.1552 40.261 40.8564 46.5287 41.0937 53.3259C41.3214 59.8562 41.0256 68.3139 38.8964 75.2111C36.7597 82.1277 33.1486 86.5107 27.249 87.0732V93.4248C33.1486 93.9886 36.7597 98.3694 38.8962 105.287C41.0256 112.184 41.3212 120.642 41.0935 127.172C40.8562 133.968 46.155 140.237 53.3172 140.237H126.693C133.854 140.237 139.152 133.969 138.915 127.172C138.687 120.642 138.983 112.184 141.112 105.287C143.249 98.3694 146.851 93.9869 152.751 93.4248V87.0732C146.851 86.5095 143.249 82.1287 141.112 75.2111C138.983 68.3149 138.687 59.8562 138.915 53.3259C139.152 46.5297 133.854 40.261 126.693 40.261H53.3152H53.3162ZM112.335 101.803C112.335 111.162 105.354 116.839 93.7683 116.839H74.0463C73.4822 116.839 72.9411 116.614 72.5422 116.216C72.1433 115.817 71.9192 115.276 71.9192 114.711V65.7869C71.9192 65.2228 72.1433 64.6817 72.5422 64.2828C72.9411 63.8839 73.4822 63.6598 74.0463 63.6598H93.656C103.316 63.6598 109.657 68.8926 109.657 76.9267C109.657 82.5657 105.391 87.614 99.9578 88.4984V88.7925C107.355 89.6039 112.335 94.7269 112.335 101.803V101.803ZM91.6178 70.4028H80.3726V86.2866H89.8439C97.1657 86.2866 101.203 83.3383 101.203 78.0685C101.202 73.1298 97.7311 70.4028 91.6178 70.4028ZM80.3726 92.589V110.093H92.0316C99.6549 110.093 103.693 107.034 103.693 101.286C103.693 95.5373 99.5416 92.588 91.5413 92.588H80.3726V92.589Z" fill="#7952B3"/>
</g>
<defs>
<clipPath id="clip0_10_407">
<rect width="125.502" height="100" fill="white" transform="translate(27.249 40.249)"/>
</clipPath>
</defs>
</svg>
