<svg width="180" height="180" viewBox="0 0 180 180" fill="none" xmlns="http://www.w3.org/2000/svg">
<path d="M125.423 59.6523L118.969 131.957L89.9566 140L61.0242 131.968L54.5768 59.6523H125.423Z" fill="#264DE4"/>
<path d="M113.443 127.353L118.959 65.5652H90V133.852L113.443 127.353Z" fill="#2965F1"/>
<path d="M69.3574 92.3862L70.1523 101.255H90V92.3862H69.3574Z" fill="#EBEBEB"/>
<path d="M90 74.4346H89.9693H67.7602L68.5664 83.3039H90V74.4346Z" fill="#EBEBEB"/>
<path d="M90 124.648V115.42L89.9611 115.431L80.0834 112.764L79.4519 105.69H74.6521H70.5486L71.7912 119.616L89.9592 124.659L90 124.648Z" fill="#EBEBEB"/>
<path d="M71.25 40H81.9922V44.4922H75.7422V48.9844H81.9922V53.4766H71.25V40Z" fill="black"/>
<path d="M84.1406 40H94.8828V43.9062H88.6328V44.6875H94.8828V53.6719H84.1406V49.5703H90.3906V48.7891H84.1406V40Z" fill="black"/>
<path d="M97.0312 40H107.773V43.9062H101.523V44.6875H107.773V53.6719H97.0312V49.5703H103.281V48.7891H97.0312V40Z" fill="black"/>
<path d="M100.891 101.255L99.8613 112.758L89.9693 115.428V124.655L108.152 119.616L108.285 118.118L110.369 94.7678L110.586 92.3861L112.187 74.4346H89.9693V83.3039H102.467L101.66 92.3861H89.9693V101.255H100.891Z" fill="white"/>
</svg>
