<svg width="180" height="181" viewBox="0 0 180 181" fill="none" xmlns="http://www.w3.org/2000/svg">
<g clip-path="url(#clip0_2_200)">
<path d="M90.0317 140.143L109.988 78.7231H70.0747L90.0313 140.143H90.0317Z" fill="#E24329"/>
<path d="M90.0317 140.142L70.0747 78.7227H42.1064L90.0317 140.142Z" fill="#FC6D26"/>
<path d="M42.1065 78.7227L36.042 97.3879C35.7724 98.2177 35.7724 99.1116 36.0419 99.9414C36.3115 100.771 36.8369 101.494 37.5427 102.007L90.0317 140.143L42.106 78.7231L42.1065 78.7227Z" fill="#FCA326"/>
<path d="M42.1064 78.7231H70.0747L58.0556 41.7302C57.437 39.8267 54.7441 39.8271 54.126 41.7302L42.1064 78.7231Z" fill="#E24329"/>
<path d="M90.0317 140.142L109.988 78.7227H137.957L90.0313 140.142H90.0317Z" fill="#FC6D26"/>
<path d="M137.957 78.7227L144.021 97.3879C144.291 98.2178 144.291 99.1116 144.021 99.9415C143.752 100.771 143.226 101.494 142.52 102.007L90.0317 140.143L137.957 78.7231V78.7227Z" fill="#FCA326"/>
<path d="M137.957 78.7231H109.988L122.008 41.7302C122.626 39.8267 125.319 39.8271 125.937 41.7302L137.957 78.7231Z" fill="#E24329"/>
</g>
<defs>
<clipPath id="clip0_2_200">
<rect width="108.46" height="100" fill="white" transform="translate(35.77 40.1245)"/>
</clipPath>
</defs>
</svg>
