<svg width="180" height="180" viewBox="0 0 180 180" fill="none" xmlns="http://www.w3.org/2000/svg">
<path d="M106.678 137.187C114.066 110.696 111.408 97.3416 98.4557 94.7759C100.434 103.771 102.66 113.014 93.2007 119.258C88.2548 122.535 84.329 121.267 75.55 114.529C71.5005 122.844 72.8606 131.128 74.7463 140C62.1651 137.805 52.2424 132.581 47.6365 120.433C42.8761 109.366 45.5036 96.5379 54.1589 88.1917C57.1883 85.1005 60.465 82.2875 63.958 79.7527C78.1157 69.119 80.8668 58.7944 73.3861 42.813C73.0461 41.8856 72.7679 40.9583 72.5824 40C88.3166 42.3802 103.216 48.7172 115.89 58.3617C143.494 80.9274 140.156 121.515 109.677 136.414C108.626 136.476 107.637 136.723 106.678 137.187V137.187Z" fill="#EE4854"/>
</svg>
