<svg width="180" height="180" viewBox="0 0 180 180" fill="none" xmlns="http://www.w3.org/2000/svg">
<path d="M61.1719 40H65.6641V44.4531H69.8047V40H74.2969V53.4766H69.8047V48.9844H65.7031V53.4766H61.1719V40ZM80.2344 44.4922H76.2695V40H88.7109V44.4922H84.7266V53.4766H80.2344V44.4922ZM90.6836 40H95.3906L98.2813 44.7461L101.172 40H105.879V53.4766H101.387V46.7969L98.2422 51.6406L95.0977 46.7969V53.4766H90.6836V40ZM108.105 40H112.598V49.0234H118.965V53.4766H108.105" fill="black"/>
<path d="M61.0156 131.992L54.5703 59.6484H125.43L118.984 131.953L89.9414 140" fill="#E44D26"/>
<path d="M90 133.848V65.5859H118.965L113.438 127.305" fill="#F16529"/>
<path d="M67.7344 74.4336H90V83.3008H77.4609L78.2813 92.3828H90V101.23H70.1562L67.7344 74.4336ZM70.5469 105.684H79.4531L80.0781 112.773L90 115.43V124.688L71.7969 119.609" fill="#EBEBEB"/>
<path d="M112.188 74.4336H89.9609V83.3008H111.367L112.188 74.4336ZM110.566 92.3828H89.9609V101.25H100.898L99.8633 112.773L89.9609 115.43V124.648L108.125 119.609" fill="white"/>
</svg>
