<svg width="180" height="180" viewBox="0 0 180 180" fill="none" xmlns="http://www.w3.org/2000/svg">
<path d="M49.3295 104.462C49.4231 104.673 49.5289 104.869 49.6428 105.064C49.6957 105.178 49.7689 105.296 49.834 105.402C49.9397 105.613 50.0536 105.816 50.1635 106.02L50.8022 107.094C50.9201 107.293 51.034 107.488 51.1683 107.684C51.392 108.066 51.6564 108.44 51.8883 108.823C51.9941 108.981 52.0917 109.14 52.2097 109.299C52.6572 109.994 53.064 110.572 53.4992 111.133C53.8084 111.552 54.1176 111.963 54.4512 112.374C54.561 112.529 54.683 112.683 54.7969 112.838L55.696 113.928C55.8058 114.054 55.9157 114.201 56.0336 114.331C56.4323 114.811 56.8554 115.275 57.2784 115.746C57.2784 115.755 57.2906 115.763 57.2988 115.775C57.8236 116.434 58.389 117.02 59.0074 117.54L59.0236 117.557C59.3491 117.89 59.6745 118.22 60.0203 118.545L60.4312 118.94C60.8827 119.363 61.3343 119.782 61.8102 120.189C61.8184 120.189 61.8224 120.197 61.8306 120.201L62.0624 120.404C62.4774 120.766 62.8964 121.124 63.3235 121.458L63.832 121.885C64.1778 122.162 64.5358 122.422 64.8897 122.695L65.443 123.118C65.8213 123.402 66.224 123.679 66.6105 123.956C66.7529 124.057 66.8952 124.159 67.0417 124.253L67.1597 124.346L68.3028 125.095L68.7909 125.42C69.3889 125.803 69.9829 126.161 70.5768 126.519C70.7477 126.604 70.9185 126.698 71.0772 126.795C71.5165 127.047 71.9721 127.304 72.4155 127.536C72.6596 127.674 72.9118 127.792 73.1641 127.918C73.4692 128.089 73.7865 128.256 74.1119 128.426C74.2014 128.455 74.2746 128.483 74.3479 128.524L74.3641 128.508C74.4984 128.569 74.6245 128.634 74.7547 128.699C75.2428 128.943 75.7513 129.175 76.2802 129.403C76.3778 129.443 76.4836 129.484 76.5893 129.541C77.1751 129.797 77.7609 130.041 78.3671 130.277C78.5054 130.318 78.6518 130.387 78.7942 130.44C79.3434 130.648 79.9088 130.859 80.4702 131.058L80.6736 131.132C81.296 131.343 81.9103 131.547 82.5449 131.738C82.6914 131.779 82.8419 131.831 82.9965 131.872C83.6433 132.067 84.2698 132.299 84.9247 132.421C126.715 140 138.859 107.419 138.859 107.419C128.656 120.64 110.549 124.127 93.4025 120.246C92.7679 120.099 92.1332 119.896 91.4905 119.709C90.5833 119.452 89.6839 119.168 88.7934 118.859L89.1799 118.976L88.9276 118.879C88.3744 118.692 87.8415 118.484 87.3004 118.277C87.168 118.221 87.0337 118.169 86.8977 118.122L86.853 118.11C86.255 117.87 85.6732 117.626 85.0956 117.37C84.9695 117.329 84.8637 117.272 84.7376 117.223C84.0534 116.925 83.3752 116.613 82.7036 116.288L83.265 116.536C83.1185 116.471 82.9746 116.4 82.8338 116.324C82.4514 116.145 82.069 115.942 81.6947 115.751C81.4097 115.615 81.1288 115.472 80.8526 115.319L80.934 115.36C80.4743 115.116 80.0146 114.852 79.5509 114.603C79.4125 114.506 79.2539 114.424 79.0952 114.335C78.4059 113.934 77.7251 113.519 77.0531 113.09L77.3094 113.245C77.1372 113.138 76.9689 113.026 76.8049 112.907L76.8294 112.923C76.3921 112.655 75.9634 112.373 75.5439 112.077C75.4055 111.988 75.2794 111.89 75.1371 111.792C74.6988 111.493 74.2674 111.184 73.8434 110.865L73.9411 110.934C73.7702 110.796 73.5871 110.666 73.4041 110.531C73.0461 110.251 72.684 109.982 72.3261 109.689L71.846 109.307C71.3344 108.9 70.8326 108.481 70.3409 108.05L70.3368 108.046L68.9252 106.764L68.5184 106.382C68.1848 106.044 67.8431 105.723 67.5014 105.389L67.1068 104.983C66.6856 104.565 66.2746 104.138 65.8742 103.701L65.8498 103.673L65.7806 103.616C65.3499 103.143 64.9254 102.664 64.5073 102.18C64.3975 102.054 64.2958 101.919 64.1819 101.785L63.2584 100.666C62.8422 100.143 62.4353 99.6132 62.038 99.0758L61.8753 98.848C52.3643 85.9279 48.9227 68.0978 56.534 53.4692L49.8136 61.9673C41.1691 74.33 42.239 90.4068 48.8495 103.534C49 103.856 49.1668 104.157 49.3295 104.462V104.462Z" fill="#1266A9"/>
<path d="M78.4444 86.652L78.3996 86.5869L78.3629 86.5381L78.4444 86.652Z" fill="black"/>
<path d="M82.9924 91.9893L83.3585 92.3554C83.8223 92.8029 84.2983 93.2382 84.7823 93.6734L84.8434 93.7263C85.3315 94.1575 85.8807 94.6091 86.4462 95.0484L86.5316 95.1135C86.6699 95.2071 86.7879 95.3169 86.9221 95.4105C87.4916 95.8498 88.0652 96.2688 88.6632 96.6878L88.7243 96.7245C88.9765 96.9075 89.245 97.0743 89.5297 97.2533C89.6436 97.3265 89.7738 97.4242 89.8958 97.4974C90.3271 97.774 90.7501 98.0303 91.1854 98.2947C91.2546 98.3232 91.3156 98.3598 91.3807 98.3883C91.7468 98.612 92.1455 98.8276 92.5278 99.0229C92.6621 99.1042 92.7923 99.1653 92.9306 99.2426C93.2031 99.3768 93.4716 99.5192 93.732 99.6575L93.8622 99.7144C94.4113 99.9829 94.9727 100.235 95.5219 100.483C95.6602 100.536 95.7782 100.581 95.8962 100.638C96.3477 100.833 96.8074 101.02 97.259 101.191C97.4624 101.26 97.6535 101.342 97.8447 101.403C98.2597 101.557 98.695 101.7 99.1058 101.842L99.6754 102.025C100.269 102.208 100.871 102.448 101.502 102.546C133.773 107.859 141.242 83.1373 141.242 83.1373C134.518 92.7663 121.504 97.355 107.636 93.7711C106.944 93.5965 106.258 93.3998 105.578 93.1812L105.81 93.2463C105.615 93.1934 105.444 93.1324 105.257 93.0754C104.834 92.929 104.398 92.7866 103.987 92.6361L103.402 92.4164C102.946 92.2334 102.482 92.0625 102.039 91.8672C101.901 91.8062 101.774 91.7655 101.669 91.7045C101.099 91.4482 100.526 91.196 99.9683 90.9275L99.1302 90.4923L98.6461 90.2482C98.2719 90.0529 97.9261 89.8495 97.5681 89.642C97.4768 89.5991 97.3885 89.5502 97.3037 89.4956L97.3159 89.4997C96.8847 89.2312 96.4372 88.9708 96.0223 88.6983C95.884 88.621 95.7579 88.5274 95.6277 88.446L94.7815 87.8969C94.1957 87.4901 93.6221 87.0548 93.0404 86.6317C92.9102 86.5137 92.7841 86.4161 92.658 86.3103C86.5601 81.5385 81.7517 75.0175 79.4695 67.6341C77.0653 59.9577 77.5942 51.3498 81.7476 44.365L76.6422 51.5572C70.3734 60.511 70.7274 72.4791 75.609 81.9494C76.4999 83.6987 77.403 85.1754 78.3996 86.5829C79.3271 87.9091 80.3523 89.463 81.589 90.5289C82.0283 91.0292 82.5002 91.5052 82.9924 91.9893V91.9893Z" fill="#1266A9"/>
<path d="M53.5196 111.158L53.5033 111.133L53.4749 111.097L53.5196 111.158ZM70.4344 108.131L70.4751 108.16L70.4832 108.172L70.4344 108.131Z" fill="black"/>
<path d="M99.2034 43.7711C95.5056 49.1693 95.1517 55.8734 97.6983 61.8249C100.404 68.1466 105.932 73.1096 112.376 75.4609C112.64 75.5626 112.896 75.648 113.169 75.7457L113.527 75.8555C113.901 75.9735 114.28 76.1118 114.666 76.1972C132.488 79.6184 137.313 67.093 138.61 65.2502C134.367 71.3115 127.252 72.7679 118.522 70.6566C117.763 70.4715 117.016 70.2405 116.285 69.965L116.419 70.0098C115.51 69.6949 114.619 69.3282 113.751 68.9114L113.905 68.9806C112.237 68.167 110.805 67.2883 109.475 66.2794C101.673 60.3808 96.8481 49.149 101.941 40L99.2034 43.7711Z" fill="#1266A9"/>
</svg>
