<svg width="180" height="181" viewBox="0 0 180 181" fill="none" xmlns="http://www.w3.org/2000/svg">
<path d="M140 40.249H40V140.249H140V40.249Z" fill="#F7DF1E"/>
<path d="M107.175 118.374C109.189 121.663 111.81 124.081 116.444 124.081C120.338 124.081 122.825 122.135 122.825 119.446C122.825 116.224 120.27 115.082 115.984 113.208L113.635 112.2C106.854 109.311 102.349 105.692 102.349 98.0411C102.349 90.9935 107.719 85.6284 116.111 85.6284C122.086 85.6284 126.381 87.7078 129.476 93.1522L122.159 97.8506C120.548 94.9618 118.81 93.8237 116.111 93.8237C113.359 93.8237 111.614 95.5697 111.614 97.8506C111.614 100.67 113.36 101.811 117.392 103.557L119.741 104.563C127.725 107.987 132.233 111.478 132.233 119.325C132.233 127.786 125.587 132.42 116.662 132.42C107.935 132.42 102.297 128.262 99.5381 122.811L107.175 118.374ZM73.9793 119.189C75.4555 121.808 76.7984 124.022 80.027 124.022C83.1143 124.022 85.0619 122.814 85.0619 118.117V86.1649H94.4587V118.244C94.4587 127.974 88.7539 132.403 80.427 132.403C72.9032 132.403 68.546 128.509 66.3301 123.82L73.9793 119.189Z" fill="black"/>
</svg>
