<svg width="180" height="180" viewBox="0 0 180 180" fill="none" xmlns="http://www.w3.org/2000/svg">
<path d="M99.8022 104.717L75.2772 99.5924C75.1745 99.791 75.0602 99.9834 74.935 100.169L97.2616 132.738L98.6085 131.392L102.407 107.772C101.765 107.5 101.195 107.083 100.743 106.553C100.291 106.022 99.9685 105.394 99.8022 104.717V104.717ZM90.8555 72.6577C89.9367 74.067 88.3508 74.9998 86.5446 74.9998C86.2665 74.9998 85.9962 74.9717 85.7305 74.9295L74.546 92.4296L104.428 79.5705C104.418 79.4502 104.392 79.3377 104.392 79.2142C104.392 78.9627 104.426 78.7189 104.467 78.4783L90.8555 72.6581V72.6577ZM91.668 69.4687L106.146 75.6592C106.608 75.2986 107.135 75.0321 107.699 74.8748L110.079 60.0782L101.013 51.0123L90.8086 66.98C91.3087 67.7198 91.6051 68.5783 91.668 69.4691V69.4687ZM122.005 72.0046L112.92 62.9172L110.945 75.1858C111.445 75.4375 111.895 75.7797 112.271 76.1951L122.005 72.0046V72.0046ZM100.237 101.486C100.592 100.84 101.103 100.294 101.723 99.895C102.343 99.4964 103.052 99.2586 103.787 99.203L106.396 82.9735C106.192 82.8376 106.009 82.6751 105.829 82.5079L75.7756 95.4421C75.8522 95.7562 75.9053 96.0765 75.9303 96.4093L100.237 101.486V101.486ZM124.48 74.4811L113.968 79.0045L139.905 90.0937L139.999 90L124.48 74.4811ZM105.695 107.82L102.535 127.462L120.88 109.117L107.667 106.358C107.16 107.021 106.476 107.528 105.695 107.82V107.82ZM70.0367 102.771C69.3726 102.771 68.7367 102.656 68.1414 102.454L62.0477 111.991L59.6931 109.638L65.4648 100.606C65.3221 100.429 65.1891 100.245 65.0664 100.053L54.6103 104.555L52.1319 102.076L63.577 97.1499L42.8855 92.8312L40.0555 90L40.9508 89.1047L64.8117 94.0859C65.0861 93.5653 65.4375 93.0891 65.8539 92.6734L54.2728 75.7811L56.6119 73.4421L68.7113 91.0922C69.1458 90.9913 69.5902 90.9394 70.0363 90.9375C70.5472 90.9375 71.0425 91.0094 71.5159 91.1312L82.838 73.4155C81.9162 72.4593 81.4015 71.1827 81.4021 69.8546C81.4021 69.4484 81.4537 69.0546 81.5427 68.6765L67.4179 62.6375L69.8956 60.1595L83.2782 65.8828C83.9568 65.3235 84.768 64.9482 85.6336 64.7931C86.4992 64.6379 87.3901 64.7081 88.2207 64.9969L98.6596 48.6592L90.0008 40L40.0008 90L90.0008 140L94.921 135.08L72.4272 102.264C71.6744 102.598 70.8601 102.77 70.0367 102.771V102.771ZM109.579 83.6731L106.924 100.172C107.388 100.545 107.772 101.007 108.054 101.531C108.336 102.055 108.509 102.631 108.563 103.224L123.63 106.369L137.427 92.5722L112.524 81.9251C111.812 82.8738 110.753 83.5022 109.579 83.6735V83.6731Z" fill="#25C7B7"/>
</svg>
