<svg width="180" height="181" viewBox="0 0 180 181" fill="none" xmlns="http://www.w3.org/2000/svg">
<path d="M63.5958 75.764H82.4567V77.2559H65.3247V88.4844H81.435V89.9762H65.3247V102.304H82.6531V103.796H63.5958V75.764ZM84.1463 75.764H86.1503L95.0306 88.0917L104.107 75.764L116.453 60.105L96.1701 89.3873L106.622 103.796H104.54L95.0306 90.6829L85.4823 103.796H83.439L93.9697 89.3873L84.1463 75.764ZM107.369 77.2559V75.764H128.862V77.2559H118.96V103.796H117.231V77.2559H107.369Z" fill="black"/>
<path d="M40 75.7639H42.1611L71.9621 120.144L59.6468 103.796L41.8075 77.884L41.7289 103.796H40V75.7639Z" fill="black"/>
<path d="M128.688 101.854C129.046 101.854 129.306 101.581 129.306 101.229C129.306 100.877 129.046 100.605 128.688 100.605C128.335 100.605 128.07 100.877 128.07 101.229C128.07 101.581 128.335 101.854 128.688 101.854ZM130.387 100.211C130.387 101.25 131.14 101.929 132.237 101.929C133.406 101.929 134.113 101.229 134.113 100.014V95.7358H133.171V100.01C133.171 100.685 132.83 101.045 132.229 101.045C131.691 101.045 131.325 100.71 131.312 100.211H130.387ZM135.345 100.157C135.412 101.238 136.316 101.929 137.662 101.929C139.1 101.929 140 101.204 140 100.048C140 99.1384 139.487 98.6355 138.242 98.3464L137.574 98.183C136.783 97.9986 136.463 97.7513 136.463 97.3197C136.463 96.775 136.96 96.4188 137.704 96.4188C138.41 96.4188 138.898 96.7666 138.987 97.3239H139.903C139.849 96.3057 138.949 95.5891 137.717 95.5891C136.392 95.5891 135.509 96.3057 135.509 97.3826C135.509 98.271 136.009 98.7989 137.107 99.0546L137.889 99.2431C138.692 99.4317 139.045 99.7083 139.045 100.169C139.045 100.706 138.49 101.095 137.733 101.095C136.922 101.095 136.358 100.731 136.278 100.157H135.345Z" fill="black"/>
</svg>
