<svg width="180" height="181" viewBox="0 0 180 181" fill="none" xmlns="http://www.w3.org/2000/svg">
<path d="M85.9057 41.1914C88.3852 39.7721 91.6148 39.7657 94.0922 41.1914C106.556 48.234 119.023 55.2655 131.485 62.3123C133.829 63.6326 135.396 66.2411 135.373 68.9418V111.313C135.39 114.125 133.667 116.796 131.195 118.086C118.772 125.09 106.356 132.102 93.9352 139.106C91.4043 140.553 88.1099 140.442 85.6582 138.876C81.9339 136.717 78.2031 134.569 74.4785 132.412C73.7174 131.958 72.8594 131.597 72.322 130.859C72.7971 130.219 73.6465 130.139 74.3367 129.859C75.8914 129.365 77.3192 128.571 78.7474 127.801C79.1085 127.554 79.5494 127.649 79.8956 127.87C83.0803 129.696 86.2369 131.575 89.4323 133.384C90.114 133.777 90.8042 133.255 91.3869 132.93C103.577 126.04 115.783 119.177 127.971 112.285C128.423 112.067 128.672 111.588 128.636 111.093C128.644 97.116 128.638 83.1363 128.64 69.159C128.691 68.5977 128.367 68.0817 127.859 67.852C115.48 60.8802 103.106 53.8979 90.7291 46.9244C90.5146 46.7769 90.2606 46.6978 90.0004 46.6975C89.7401 46.6971 89.4859 46.7754 89.271 46.9222C76.8936 53.8979 64.5226 60.8867 52.1452 67.858C51.6394 68.0881 51.3 68.5956 51.3602 69.159C51.3624 83.1363 51.3602 97.116 51.3602 111.095C51.3388 111.337 51.3918 111.579 51.5121 111.789C51.6325 112 51.8144 112.168 52.0333 112.272C55.3363 114.145 58.6436 116.005 61.9487 117.871C63.8106 118.873 66.0968 119.469 68.1482 118.701C69.9585 118.052 71.2275 116.204 71.193 114.282C71.2101 100.387 71.1844 86.4888 71.2058 72.5952C71.1606 71.9783 71.7457 71.4687 72.3455 71.5267C73.9325 71.5161 75.5217 71.5054 77.1087 71.531C77.7711 71.5161 78.227 72.1803 78.1451 72.8018C78.1387 86.7854 78.1622 100.769 78.1344 114.753C78.1387 118.48 76.6076 122.535 73.1604 124.359C68.9136 126.559 63.6646 126.092 59.4691 123.982C55.8371 122.17 52.371 120.03 48.8034 118.088C46.3242 116.805 44.61 114.123 44.6275 111.313V68.9418C44.6015 66.1852 46.2316 63.5293 48.6485 62.2283C61.069 55.2188 73.4873 48.204 85.9057 41.1914Z" fill="#8CC84B"/>
<path d="M96.7413 70.5419C102.158 70.1932 107.958 70.3353 112.832 73.004C116.607 75.049 118.699 79.341 118.766 83.534C118.66 84.0996 118.069 84.4116 117.529 84.3728C115.957 84.3706 114.385 84.3942 112.813 84.3621C112.147 84.3877 111.759 83.773 111.676 83.1836C111.224 81.1774 110.13 79.1904 108.242 78.2227C105.343 76.7714 101.982 76.8444 98.8209 76.8747C96.5134 76.9972 94.0321 77.197 92.0771 78.5539C90.5763 79.5818 90.1204 81.6568 90.6561 83.3278C91.1611 84.5277 92.5462 84.9148 93.6795 85.2717C100.208 86.9791 107.126 86.8092 113.529 89.0562C116.181 89.9722 118.774 91.753 119.682 94.5289C120.869 98.2492 120.348 102.696 117.701 105.683C115.555 108.141 112.428 109.478 109.31 110.205C105.162 111.13 100.857 111.153 96.6448 110.743C92.6837 110.291 88.5615 109.25 85.5036 106.552C82.8887 104.281 81.6116 100.743 81.7384 97.3289C81.7686 96.7523 82.3428 96.3502 82.8951 96.3976C84.4779 96.3848 86.0606 96.3805 87.6434 96.3997C88.2756 96.3545 88.7443 96.9008 88.7767 97.4967C89.0687 99.4082 89.7871 101.414 91.4539 102.548C94.6707 104.623 98.7069 104.481 102.39 104.539C105.442 104.404 108.867 104.363 111.358 102.346C112.671 101.195 113.061 99.2707 112.706 97.6149C112.321 96.217 110.859 95.5656 109.603 95.1397C103.158 93.101 96.1629 93.8408 89.7807 91.5354C87.1896 90.6197 84.6841 88.8885 83.6887 86.2266C82.2997 82.4592 82.9361 77.7993 85.8605 74.9133C88.7118 72.0427 92.8279 70.9372 96.7413 70.5416V70.5419Z" fill="#8CC84B"/>
</svg>
