<svg width="180" height="180" viewBox="0 0 180 180" fill="none" xmlns="http://www.w3.org/2000/svg">
<g clip-path="url(#clip0_10_434)">
<path d="M123.906 79.7656C123.75 76.3281 124.219 73.2813 122.656 70.7031C118.906 64.2969 109.531 60.5469 90.7812 60.5469V61.0938H90.3905H90.7812V60.5469C72.0312 60.5469 62.1875 64.2969 58.4375 70.7813C56.9531 73.4375 57.1093 76.4063 56.875 79.8438C56.7187 82.5781 55.4687 85.4688 56.0156 88.5938C56.6406 92.6563 56.875 96.7188 57.5 100.469C57.9687 103.516 62.1875 106.094 62.5781 108.984C63.6718 116.953 71.9531 120.625 90.703 120.625V121.25H90.2343H90.7812V120.625C109.531 120.625 117.5 116.953 118.516 108.984C118.906 106.016 122.812 103.516 123.281 100.469C123.906 96.7188 124.14 92.6563 124.765 88.5938C125.312 85.4688 124.062 82.5 123.906 79.7656V79.7656Z" fill="#EFCCA3"/>
<path d="M90.4687 82.5781C93.8281 82.6563 96.1719 84.7656 98.3594 86.7187C100.937 88.9844 105.313 90.5469 107.109 92.5C108.906 94.4531 111.25 96.4062 112.109 99.4531C112.969 102.5 113.203 106.406 113.203 107.422C113.203 108.438 113.75 108.203 115.312 107.422C118.984 105.625 123.047 100.781 123.047 100.781C122.578 103.828 118.594 106.563 118.203 109.453C117.266 117.422 109.531 121.25 90.3906 121.25H90.3125H90.7812" fill="#CCAC8D"/>
<path d="M102.812 76.4844C103.516 78.9062 106.016 87.1094 101.172 84.375C101.172 84.375 103.203 85.5469 104.453 90C105.781 94.4531 108.984 95 108.984 95C108.984 95 114.219 96.0156 118.125 92.6562C121.406 89.8437 121.953 84.8437 120.547 81.0156C119.141 77.2656 116.641 76.0937 112.969 75.3125C109.297 74.4531 101.953 73.75 102.812 76.4844V76.4844Z" fill="#CCAC8D"/>
<path d="M112.109 92.2657C115.906 92.2657 118.984 89.1876 118.984 85.3906C118.984 81.5937 115.906 78.5156 112.109 78.5156C108.312 78.5156 105.234 81.5937 105.234 85.3906C105.234 89.1876 108.312 92.2657 112.109 92.2657Z" fill="black"/>
<path d="M110.313 84.1406C111.305 84.1406 112.109 83.3361 112.109 82.3437C112.109 81.3514 111.305 80.5469 110.313 80.5469C109.32 80.5469 108.516 81.3514 108.516 82.3437C108.516 83.3361 109.32 84.1406 110.313 84.1406Z" fill="white"/>
<path d="M101.641 85.0781C101.641 85.0781 107.812 89.2969 111.172 93.4375C114.531 97.5781 114.453 98.3593 114.453 98.3593L112.031 99.4531C112.031 99.4531 108.594 92.9687 104.375 90.5469C100.078 88.125 99.6094 86.0937 99.6094 86.0937L101.641 85.0781V85.0781Z" fill="#EFCCA3"/>
<path d="M90.7031 82.5781C87.3438 82.6563 84.8438 84.7656 82.5781 86.7187C80 88.9844 75.4687 90.5469 73.6719 92.5C71.875 94.4531 69.4531 96.4062 68.5937 99.4531C67.7344 102.5 67.4219 106.406 67.4219 107.422C67.4219 108.438 67.5781 108.516 65.3125 107.422C61.6406 105.703 57.5781 100.781 57.5781 100.781C58.0469 103.828 62.0313 106.563 62.4219 109.453C63.5156 117.422 71.25 121.25 90.3906 121.25H90.7812" fill="#CCAC8D"/>
<path d="M108.828 95.7812C105.078 91.1719 99.0625 86.875 90.7031 86.875H90.625C82.2656 86.875 76.25 91.1719 72.5 95.7812C68.5937 100.547 68.9062 102.422 68.9062 106.953C68.9062 123.359 74.6875 118.672 78.5156 120.703C82.4219 122.656 86.4844 122.031 90.625 122.031H90.7031C94.9219 122.031 98.9063 122.578 102.813 120.625C106.641 118.672 112.422 123.516 112.422 107.109C112.5 102.578 112.734 100.547 108.828 95.7812V95.7812Z" fill="#56332B"/>
<path d="M90.3125 90.9375C90.3125 90.9375 89.7656 98.5157 88.6719 100L90.7032 99.5314L90.3125 90.9375Z" fill="#442823"/>
<path d="M90.8594 90.9375C90.8594 90.9375 91.4062 98.5157 92.5 100L90.4688 99.5314L90.8594 90.9375Z" fill="#442823"/>
<path d="M84.2969 89.1406C83.5156 87.3437 86.3281 84.4531 90.7813 84.375C95.2344 84.375 98.0469 87.2656 97.2657 89.1406C96.4844 91.0156 93.6719 91.5625 90.7813 91.6406C87.9688 91.5625 85.0781 91.0156 84.2969 89.1406V89.1406Z" fill="#56332B"/>
<path d="M90.7812 90.9375C90.7812 90.625 93.4374 90.5469 94.8437 89.6094C94.8437 89.6094 91.9531 90.5469 91.3281 90.1562C90.7031 89.8437 90.5468 88.9062 90.5468 88.9062C90.5468 88.9062 90.3125 89.8437 89.8437 90.1562C89.2968 90.4687 86.0156 89.6094 86.0156 89.6094C86.0156 89.6094 90.3906 90.7031 90.3906 90.9375C90.3906 91.1719 90.3125 91.9531 90.3125 92.5C90.3125 94.4531 90.3125 99.2969 90.625 99.6875C91.0937 100.391 90.9374 94.4531 90.9374 92.5C90.8593 91.875 90.8593 91.25 90.7812 90.9375V90.9375Z" fill="black"/>
<path d="M90.9375 101.406C92.2656 101.406 94.6093 102.344 96.7187 103.828C94.6874 101.562 92.2656 100 90.9375 100C89.5312 100 86.5625 101.719 84.4531 104.219C86.6406 102.5 89.4531 101.406 90.9375 101.406Z" fill="#7F4A41"/>
<path d="M90.3906 115.234C87.4219 115.234 84.5312 114.297 81.875 113.594C81.3281 113.438 80.7812 113.828 80.2344 113.672C75.3125 112.109 71.3281 109.453 68.9062 106.094V106.875C68.9062 123.281 74.6875 118.672 78.5156 120.625C82.4219 122.578 86.4844 121.953 90.625 121.953H90.7031C94.9219 121.953 98.9062 122.5 102.812 120.547C106.641 118.594 112.422 123.359 112.422 106.953C112.422 106.328 112.422 105.703 112.5 105.156C110.234 108.828 106.094 111.719 100.937 113.438C100.469 113.594 99.375 113.203 98.9062 113.281C96.0937 114.219 93.5937 115.234 90.3906 115.234V115.234Z" fill="#442823"/>
<path d="M82.9687 106.406C82.9687 106.406 81.0156 112.266 82.3437 114.844L80.5469 114.063C80.5469 114.063 81.875 108.125 82.9687 106.406V106.406ZM98.4375 106.406C98.4375 106.406 100.391 112.266 99.0625 114.844L100.859 114.063C100.859 114.063 99.4531 108.125 98.4375 106.406Z" fill="#442823"/>
<path d="M77.9688 76.4844C77.2657 78.9062 74.7657 87.1094 79.6094 84.375C79.6094 84.375 77.5782 85.5469 76.3282 90C75.0782 94.4531 71.7969 95 71.7969 95C71.7969 95 66.5626 96.0156 62.6563 92.6562C59.3751 89.8437 58.8282 84.8437 60.2344 81.0156C61.6407 77.1875 64.1407 76.0937 67.8126 75.3125C71.4844 74.4531 78.7501 73.75 77.9688 76.4844V76.4844Z" fill="#CCAC8D"/>
<path d="M90.7031 100C92.8125 100 99.375 104.531 99.4531 110.078V109.766C99.4531 103.984 94.1406 99.375 90.7031 99.375C87.2656 99.375 81.9531 104.062 81.9531 109.766V110.078C82.0312 104.531 88.5937 100 90.7031 100Z" fill="black"/>
<path d="M92.4087 89.1832C92.7429 89.0969 92.8828 88.519 92.7211 87.8923C92.5595 87.2656 92.1574 86.8275 91.8232 86.9137C91.489 86.9999 91.3491 87.5779 91.5107 88.2046C91.6724 88.8312 92.0744 89.2694 92.4087 89.1832Z" fill="#331712"/>
<path d="M88.393 89.1714C88.7227 89.2737 89.1454 88.8555 89.3371 88.2374C89.5289 87.6193 89.4171 87.0353 89.0874 86.933C88.7577 86.8307 88.335 87.2489 88.1433 87.867C87.9515 88.4852 88.0633 89.0692 88.393 89.1714Z" fill="#331712"/>
<path d="M69.0625 92.2657C72.8595 92.2657 75.9375 89.1876 75.9375 85.3906C75.9375 81.5937 72.8595 78.5156 69.0625 78.5156C65.2655 78.5156 62.1875 81.5937 62.1875 85.3906C62.1875 89.1876 65.2655 92.2657 69.0625 92.2657Z" fill="black"/>
<path d="M70.8594 84.1406C71.8517 84.1406 72.6562 83.3361 72.6562 82.3437C72.6562 81.3514 71.8517 80.5469 70.8594 80.5469C69.867 80.5469 69.0625 81.3514 69.0625 82.3437C69.0625 83.3361 69.867 84.1406 70.8594 84.1406Z" fill="white"/>
<path d="M92.7344 85.4686C92.7344 85.3905 90.9375 86.2499 90.4687 86.328C90 86.2499 88.2031 85.3905 88.2031 85.4686H92.7344Z" fill="#7F4A41"/>
<path d="M79.0625 85.0781C79.0625 85.0781 72.8906 89.2969 69.5313 93.4375C66.1719 97.5781 66.25 98.3593 66.25 98.3593L68.6719 99.4531C68.6719 99.4531 72.1094 92.9687 76.3281 90.5469C80.5469 88.125 81.0938 86.0937 81.0938 86.0937L79.0625 85.0781Z" fill="#EFCCA3"/>
<path d="M65.5469 72.5781C65.5469 72.5781 63.4375 78.3594 58.75 80.7813C58.75 80.7813 66.0938 79.9219 65.5469 72.5781ZM114.844 72.5781C114.844 72.5781 116.953 78.3594 121.641 80.7813C121.641 80.7813 114.297 79.9219 114.844 72.5781ZM101.484 83.3594C101.484 83.3594 96.875 78.5156 90.7031 78.3594H90.7812H90.8594C84.6094 78.5156 80.0781 83.3594 80.0781 83.3594C85.4687 79.6094 90.0781 79.6875 90.8594 79.6875C90.7812 79.6875 96.0937 79.6094 101.484 83.3594V83.3594ZM96.0938 73.2031C96.0938 73.2031 93.75 69.9219 90.625 69.8438H90.7812C88.4375 69.9219 85.3906 73.2031 85.3906 73.2031C88.0469 70.625 90.7812 70.7031 90.7812 70.7031C90.7812 70.7031 93.3594 70.625 96.0938 73.2031ZM69.0625 97.1875C69.0625 97.1875 65.3906 98.9844 62.7344 97.8906H62.6562C60.3125 96.5625 59.1406 92.5781 59.1406 92.5781C59.1406 92.5781 61.4844 99.6094 69.0625 97.1875V97.1875ZM111.875 97.1875C111.875 97.1875 115.547 98.9844 118.203 97.8906C121.328 96.5625 121.797 92.5781 121.797 92.5781C121.797 92.5781 119.453 99.6094 111.875 97.1875V97.1875Z" fill="#CCAC8D"/>
<path d="M73.2812 72.1875C75.3125 71.7969 78.6719 71.7188 81.3281 72.5781C84.6875 73.75 81.9531 78.0469 82.6562 78.2813C83.3594 78.5156 84.2969 75.3125 90.5469 75.625C96.875 75.9375 97.5781 78.75 98.4375 78.2813C99.2969 77.8125 97.5781 70.4688 107.031 72.1875C107.031 72.1875 97.1094 69.5313 97.5781 76.7188C97.5781 76.7188 91.875 72.3438 83.9063 76.25C83.9844 76.25 86.0156 69.5313 73.2812 72.1875V72.1875ZM107.891 72.1875C108.047 72.1875 108.125 72.2656 108.203 72.2656C108.281 72.2656 108.125 72.1875 107.891 72.1875ZM70.5469 62.5781C70.5469 62.5781 62.1094 73.2031 60.8594 77.2656C59.6094 81.4063 58.6719 98.3594 57.5781 100.781L53.6719 84.0625L60.8594 66.6406L70.5469 62.5781V62.5781ZM110.234 62.5781C110.234 62.5781 118.672 73.2031 119.922 77.2656C121.172 81.4063 122.109 98.3594 123.203 100.781L127.109 84.0625L119.922 66.6406L110.234 62.5781V62.5781Z" fill="#CCAC8D"/>
<path d="M109.844 62.5781C109.844 62.5781 118.906 70.1562 121.563 78.9062C124.219 87.6562 123.125 98.2812 125.156 99.6094C128.047 101.484 131.328 90.3125 132.422 89.1406C134.141 87.2656 139.844 82.5 140.235 81.6406C140.625 80.7812 128.672 67.7344 123.438 65.1562C117.109 62.1875 109.297 61.9531 109.844 62.5781V62.5781Z" fill="#56332B"/>
<path d="M117.578 67.2656C117.578 67.2656 128.281 80.9375 128.125 97.9687L132.422 89.2187C132.344 89.2187 128.594 78.0469 117.578 67.2656V67.2656Z" fill="#442823"/>
<path d="M70.5468 62.5781C70.5468 62.5781 61.4843 70.1562 58.8281 78.9062C56.1718 87.6562 57.2656 98.2812 55.2343 99.6094C52.3437 101.484 49.0624 90.3125 47.9687 89.1406C46.2499 87.2656 40.5468 82.5 40.1562 81.6406C39.7656 80.7812 51.7187 67.7344 56.9531 65.1562C63.2812 62.1875 71.0937 61.9531 70.5468 62.5781V62.5781Z" fill="#56332B"/>
<path d="M62.8125 67.2656C62.8125 67.2656 52.1094 80.9375 52.2656 97.9687L48.0469 89.2187C48.0469 89.2187 51.7969 78.0469 62.8125 67.2656Z" fill="#442823"/>
<path d="M57.0312 98.2812C57.0312 98.2812 57.8125 102.5 59.0625 103.828C60.3125 105.156 59.4531 102.812 59.4531 102.812C59.4531 102.812 58.125 102.109 58.3594 96.7187C58.5938 91.328 57.0312 98.2812 57.0312 98.2812V98.2812ZM123.672 98.2812C123.672 98.2812 122.891 102.5 121.641 103.828C120.391 105.156 121.25 102.812 121.25 102.812C121.25 102.812 122.578 102.109 122.344 96.7187C122.109 91.328 123.672 98.2812 123.672 98.2812V98.2812Z" fill="#CCAC8D"/>
<path d="M82.5781 95.7033C82.9233 95.7033 83.2031 95.4234 83.2031 95.0782C83.2031 94.733 82.9233 94.4531 82.5781 94.4531C82.2329 94.4531 81.9531 94.733 81.9531 95.0782C81.9531 95.4234 82.2329 95.7033 82.5781 95.7033Z" fill="#442823"/>
<path d="M78.9844 99.4531C79.3296 99.4531 79.6094 99.1733 79.6094 98.8281C79.6094 98.4829 79.3296 98.2031 78.9844 98.2031C78.6392 98.2031 78.3594 98.4829 78.3594 98.8281C78.3594 99.1733 78.6392 99.4531 78.9844 99.4531Z" fill="#442823"/>
<path d="M77.8125 95.7033C78.1577 95.7033 78.4375 95.4234 78.4375 95.0782C78.4375 94.733 78.1577 94.4531 77.8125 94.4531C77.4673 94.4531 77.1875 94.733 77.1875 95.0782C77.1875 95.4234 77.4673 95.7033 77.8125 95.7033Z" fill="#442823"/>
<path d="M97.8126 95.7033C98.1578 95.7033 98.4376 95.4234 98.4376 95.0782C98.4376 94.733 98.1578 94.4531 97.8126 94.4531C97.4674 94.4531 97.1875 94.733 97.1875 95.0782C97.1875 95.4234 97.4674 95.7033 97.8126 95.7033Z" fill="#442823"/>
<path d="M101.406 99.4531C101.751 99.4531 102.031 99.1733 102.031 98.8281C102.031 98.4829 101.751 98.2031 101.406 98.2031C101.061 98.2031 100.781 98.4829 100.781 98.8281C100.781 99.1733 101.061 99.4531 101.406 99.4531Z" fill="#442823"/>
<path d="M102.578 95.7033C102.923 95.7033 103.203 95.4234 103.203 95.0782C103.203 94.733 102.923 94.4531 102.578 94.4531C102.233 94.4531 101.953 94.733 101.953 95.0782C101.953 95.4234 102.233 95.7033 102.578 95.7033Z" fill="#442823"/>
</g>
<defs>
<clipPath id="clip0_10_434">
<rect width="100" height="100" fill="white" transform="translate(40 40)"/>
</clipPath>
</defs>
</svg>
