<svg width="180" height="181" viewBox="0 0 180 181" fill="none" xmlns="http://www.w3.org/2000/svg">
<path d="M90.0001 99.0653C94.8691 99.0653 98.8163 95.1182 98.8163 90.2491C98.8163 85.38 94.8691 81.4329 90.0001 81.4329C85.131 81.4329 81.1838 85.38 81.1838 90.2491C81.1838 95.1182 85.131 99.0653 90.0001 99.0653Z" fill="#61DAFB"/>
<path d="M90 108.312C116.127 108.312 137.307 100.225 137.307 90.2491C137.307 80.2734 116.127 72.1865 90 72.1865C63.8733 72.1865 42.6934 80.2734 42.6934 90.2491C42.6934 100.225 63.8733 108.312 90 108.312Z" stroke="#61DAFB" stroke-width="5"/>
<path d="M74.3574 99.2803C87.4207 121.907 105.014 136.206 113.653 131.218C122.292 126.23 118.706 103.844 105.643 81.2178C92.5792 58.5913 74.9858 44.2925 66.3467 49.2803C57.7075 54.2681 61.294 76.6539 74.3574 99.2803Z" stroke="#61DAFB" stroke-width="5"/>
<path d="M74.3574 81.2177C61.294 103.844 57.7075 126.23 66.3467 131.218C74.9858 136.206 92.5792 121.907 105.643 99.2803C118.706 76.6538 122.292 54.2681 113.653 49.2803C105.014 44.2924 87.4207 58.5913 74.3574 81.2177Z" stroke="#61DAFB" stroke-width="5"/>
</svg>
