<svg width="180" height="181" viewBox="0 0 180 181" fill="none" xmlns="http://www.w3.org/2000/svg">
<path d="M126.108 95.7386C122.619 95.7568 119.587 96.597 117.048 97.8391C116.117 95.9943 115.185 94.3504 115.021 93.1449C114.838 91.7385 114.619 90.88 114.838 89.1996C115.057 87.5191 116.044 85.1264 116.025 84.9437C116.007 84.7611 115.806 83.9026 113.797 83.8843C111.788 83.8661 110.053 84.2679 109.852 84.7976C109.651 85.3273 109.267 86.5328 109.011 87.7749C108.664 89.6014 104.993 96.1221 102.893 99.5378C102.217 98.2044 101.632 97.0354 101.504 96.1039C101.322 94.6974 101.103 93.839 101.322 92.1586C101.541 90.4781 102.527 88.0854 102.509 87.9027C102.491 87.7201 102.29 86.8616 100.281 86.8433C98.2714 86.8251 96.5362 87.2269 96.3352 87.7566C96.1343 88.2863 95.9151 89.5283 95.495 90.7339C95.0749 91.9394 90.1981 102.826 88.9195 105.638C88.2619 107.081 87.6957 108.232 87.2939 109.018C87.2939 109.018 87.2756 109.072 87.2208 109.164C86.8738 109.839 86.6729 110.205 86.6729 110.205C86.6729 110.205 86.6729 110.205 86.6729 110.223C86.3989 110.716 86.1066 111.173 85.9605 111.173C85.8509 111.173 85.65 109.858 85.997 108.068C86.7276 104.287 88.4629 98.4053 88.4446 98.2044C88.4446 98.0948 88.7734 97.0719 87.3121 96.5423C85.8874 96.0126 85.376 96.8893 85.2482 96.8893C85.1203 96.8893 85.029 97.1998 85.029 97.1998C85.029 97.1998 86.6181 90.5877 81.9969 90.5877C79.111 90.5877 75.1291 93.7476 73.1565 96.597C71.9144 97.2729 69.2659 98.7158 66.4348 100.268C65.3571 100.871 64.243 101.474 63.2018 102.04C63.1288 101.967 63.0557 101.876 62.9826 101.803C57.3934 95.8299 47.0552 91.6106 47.4936 83.5921C47.658 80.6696 48.6626 72.9982 67.3481 63.6828C82.7275 56.1027 94.9653 58.2032 97.0841 62.8609C100.116 69.5095 90.5269 81.8569 74.636 83.6469C68.5719 84.3227 65.3937 81.9847 64.59 81.108C63.7498 80.1947 63.6219 80.1399 63.3114 80.3226C62.8 80.5966 63.1288 81.4185 63.3114 81.8934C63.7863 83.1355 65.7407 85.3273 69.0468 86.405C71.9692 87.3548 79.0745 87.8845 87.6774 84.5602C97.3033 80.834 104.829 70.4775 102.619 61.8015C100.408 52.9976 85.7961 50.0934 71.9692 55.0068C63.7498 57.9292 54.8363 62.5321 48.4251 68.5231C40.8085 75.6466 39.603 81.8386 40.0961 84.4323C41.8679 93.6381 54.5623 99.6291 59.6401 104.068C59.3844 104.214 59.1469 104.342 58.946 104.451C56.4071 105.711 46.7265 110.771 44.3154 116.123C41.5756 122.187 44.7538 126.534 46.8543 127.119C53.3751 128.927 60.0784 125.676 63.6767 120.306C67.275 114.935 66.8366 107.958 65.1745 104.762C65.1562 104.725 65.138 104.689 65.1014 104.652C65.759 104.269 66.4348 103.867 67.0924 103.483C68.3892 102.716 69.6678 102.004 70.7637 101.419C70.1427 103.118 69.686 105.145 69.4669 108.068C69.1929 111.502 70.5993 115.958 72.4441 117.712C73.2661 118.479 74.2341 118.497 74.8551 118.497C77.0105 118.497 77.9785 116.707 79.0562 114.588C80.3713 111.995 81.5585 108.981 81.5585 108.981C81.5585 108.981 80.079 117.127 84.0974 117.127C85.5587 117.127 87.0382 115.228 87.6957 114.26C87.6957 114.278 87.6957 114.278 87.6957 114.278C87.6957 114.278 87.7322 114.223 87.8053 114.095C87.9514 113.858 88.0428 113.712 88.0428 113.712C88.0428 113.712 88.0428 113.693 88.0428 113.675C88.6272 112.652 89.9424 110.333 91.8968 106.479C94.4174 101.51 96.8467 95.3002 96.8467 95.3002C96.8467 95.3002 97.0659 96.8162 97.8147 99.3369C98.2531 100.816 99.1664 102.442 99.897 104.013C99.3125 104.835 98.9472 105.291 98.9472 105.291C98.9472 105.291 98.9472 105.291 98.9655 105.31C98.4906 105.931 97.9791 106.606 97.4129 107.264C95.422 109.639 93.0475 112.36 92.7187 113.145C92.3351 114.077 92.4265 114.753 93.1571 115.301C93.6868 115.703 94.6366 115.757 95.6046 115.703C97.3946 115.575 98.6549 115.136 99.276 114.862C100.244 114.515 101.376 113.986 102.436 113.2C104.39 111.757 105.578 109.693 105.468 106.972C105.413 105.474 104.92 103.976 104.317 102.57C104.5 102.314 104.664 102.058 104.847 101.803C107.934 97.2911 110.327 92.3412 110.327 92.3412C110.327 92.3412 110.546 93.8572 111.295 96.3779C111.66 97.6564 112.409 99.0446 113.066 100.396C110.162 102.752 108.372 105.492 107.733 107.282C106.582 110.607 107.477 112.104 109.176 112.451C109.943 112.616 111.039 112.25 111.843 111.903C112.865 111.575 114.071 111.008 115.222 110.168C117.176 108.725 119.057 106.716 118.948 103.995C118.893 102.752 118.564 101.529 118.108 100.341C120.573 99.3186 123.752 98.7524 127.807 99.2273C136.501 100.25 138.218 105.675 137.889 107.958C137.56 110.241 135.734 111.483 135.131 111.867C134.528 112.25 134.327 112.378 134.382 112.652C134.455 113.054 134.747 113.036 135.259 112.963C135.971 112.835 139.825 111.118 139.99 106.917C140.264 101.547 135.149 95.6838 126.108 95.7386ZM59.0373 118.351C56.1514 121.493 52.133 122.68 50.3978 121.675C48.5347 120.598 49.2653 115.958 52.8088 112.634C54.9641 110.607 57.7405 108.725 59.5853 107.575C60.0054 107.319 60.6264 106.954 61.3753 106.497C61.5032 106.424 61.5762 106.387 61.5762 106.387C61.7223 106.296 61.8685 106.205 62.0146 106.113C63.3114 110.862 62.0694 115.045 59.0373 118.351ZM80.0425 104.068C79.0379 106.515 76.9374 112.78 75.6588 112.433C74.5629 112.141 73.8871 107.392 75.4396 102.698C76.2251 100.341 77.8872 97.5286 78.8553 96.4327C80.4261 94.6792 82.1613 94.0947 82.5814 94.807C83.1111 95.7386 80.6635 102.533 80.0425 104.068ZM97.3764 112.36C96.9563 112.579 96.5544 112.725 96.3718 112.616C96.2439 112.543 96.5544 112.25 96.5544 112.25C96.5544 112.25 98.728 109.913 99.5865 108.853C100.08 108.232 100.664 107.501 101.285 106.68C101.285 106.753 101.285 106.844 101.285 106.917C101.285 109.712 98.5819 111.593 97.3764 112.36ZM110.747 109.31C110.436 109.091 110.491 108.36 111.532 106.077C111.934 105.182 112.884 103.684 114.509 102.241C114.692 102.826 114.82 103.392 114.802 103.921C114.783 107.447 112.263 108.762 110.747 109.31Z" fill="#CD6799"/>
</svg>
