<svg width="180" height="181" viewBox="0 0 180 181" fill="none" xmlns="http://www.w3.org/2000/svg">
<g clip-path="url(#clip0_10_412)">
<path d="M41.9938 75.8717C41.9938 75.8717 39.5832 74.1341 42.4759 71.8139L49.2155 65.7874C49.2155 65.7874 51.144 63.7585 53.183 65.5262L115.377 112.613V135.193C115.377 135.193 115.346 138.738 110.796 138.347L41.9938 75.8717Z" fill="#2489CA"/>
<path d="M58.0242 90.426L41.9937 105C41.9937 105 40.3465 106.226 41.9937 108.415L49.4365 115.185C49.4365 115.185 51.2042 117.083 53.8157 114.924L70.8105 102.037L58.0242 90.426Z" fill="#1070B3"/>
<path d="M86.1681 90.5463L115.567 68.0975L115.377 45.6387C115.377 45.6387 114.121 40.7371 109.933 43.2884L70.8105 78.8951L86.1681 90.5463Z" fill="#0877B9"/>
<path d="M110.797 138.377C112.504 140.125 114.573 139.552 114.573 139.552L137.484 128.262C140.417 126.264 140.005 123.783 140.005 123.783V56.366C140.005 53.403 136.972 52.3785 136.972 52.3785L117.114 42.8064C112.775 40.1246 109.933 43.2885 109.933 43.2885C109.933 43.2885 113.589 40.6569 115.377 45.6388V134.781C115.377 135.394 115.246 135.996 114.985 136.539C114.463 137.593 113.328 138.578 110.606 138.166L110.797 138.377Z" fill="#3C99D4"/>
</g>
<defs>
<clipPath id="clip0_10_412">
<rect width="101.833" height="100" fill="white" transform="translate(39.0835 40.1245)"/>
</clipPath>
</defs>
</svg>
