<svg width="180" height="181" viewBox="0 0 180 181" fill="none" xmlns="http://www.w3.org/2000/svg">
<g clip-path="url(#clip0_2_191)">
<path d="M43.0011 44.5319H136.999V135.966H43.0011V44.5319Z" fill="#2E001E"/>
<path d="M38.7285 40.2593V140.239H141.271V40.2593H38.7285ZM43.0011 44.5319H136.999V135.966H43.0011V44.5319Z" fill="#FF2BC2"/>
<path d="M113.2 82.2592C112.559 81.9601 111.748 81.832 110.722 81.832C105.339 81.832 101.75 85.9764 101.75 92.8553C101.75 100.717 105.424 103.879 110.209 103.879C111.235 103.879 112.346 103.75 113.158 103.409V82.2592H113.2ZM94.059 93.1971C94.059 83.2419 100.468 75.4658 110.979 75.4658C111.876 75.4658 112.346 75.4658 113.2 75.5512V64.4424C113.2 64.186 113.414 64.0151 113.628 64.0151H120.507C120.848 64.0151 120.934 64.1433 120.934 64.3569V103.409C120.934 104.562 120.934 106.015 121.147 107.596C121.147 107.895 121.147 107.938 120.891 108.066C117.302 109.775 113.542 110.544 109.953 110.544C100.682 110.544 94.059 104.819 94.059 93.1971V93.1971ZM79.4893 86.2755L91.4527 109.476C91.6663 109.818 91.5381 110.159 91.1963 110.159H83.7619C83.292 110.159 83.0783 110.031 82.8647 109.604C80.1302 103.964 77.353 98.1106 74.4903 92.0435H74.4049C71.8413 97.7688 69.0214 104.007 66.2869 109.647C66.0733 109.988 65.8596 110.117 65.5178 110.117H58.4253C57.998 110.117 57.9553 109.775 58.1689 109.519L69.8759 87.0018L58.5534 64.6133C58.2971 64.2715 58.5534 63.9724 58.8525 63.9724H66.2014C66.6287 63.9724 66.8423 64.0579 66.9705 64.4424C69.6623 70.125 72.3968 75.7221 74.9603 81.4474H75.0458C77.5239 75.8076 80.2584 70.125 82.8647 64.5279C83.0783 64.186 83.2065 63.9724 83.6338 63.9724H90.5127C90.8545 63.9724 90.9827 64.2288 90.769 64.6133L79.4893 86.2755V86.2755Z" fill="#FF2BC2"/>
</g>
<defs>
<clipPath id="clip0_2_191">
<rect width="102.543" height="100" fill="white" transform="translate(38.7285 40.249)"/>
</clipPath>
</defs>
</svg>
